<?xml version="1.0" encoding="UTF-8"?>
<svg id="Capa_1" xmlns="http://www.w3.org/2000/svg" version="1.1" viewBox="0 0 338 90.9">
  <!-- Generator: Adobe Illustrator 30.0.0, SVG Export Plug-In . SVG Version: 2.1.1 Build 123)  -->
  <defs>
    <style>
      .st0 {
        fill: #424242;
      }
    </style>
  </defs>
  <g>
    <path class="st0" d="M120.5,54.8v-6.9h19.5c1,0,2-.5,2.3-1.1l1.9-4.1h-21.2c-1.4,0-2.5.8-2.5,1.9v-8.6h25.1c1,0,2-.5,2.3-1.1l2.1-4.6h-31.6c-3.4,0-5.5,1.8-5.5,4.1v25.9h32.8c1,0,2-.5,2.3-1.1l2.1-4.6h-29.5Z"/>
    <path class="st0" d="M319.5,33.1c-2.6-1.8-5.9-2.7-9.7-2.7h-18.3c-3.2,0-5.1,1.6-5.1,3.8v26.3h7.7v-10h15.2c4.2,0,7.6-.9,10.2-2.7,2.6-1.8,4-4.3,4-7.4s-1.3-5.5-4-7.3ZM309.1,44.9h-12.6c-1.4,0-2.5.8-2.5,1.9v-10.8h15.2c4.4,0,6.5,1.5,6.5,4.4s-2.2,4.4-6.7,4.4h0Z"/>
    <path class="st0" d="M255.2,34c-1.3-2.7-3.8-4.1-7.4-4.1s-6.1,1.4-7.4,4.1l-12.6,26.4h8.1l4-8.8h15.6l4,8.8h8.1l-12.5-26.4ZM241.3,48.4l5.5-12c.2-.4.4-.5.9-.5s.7.2.9.5l4.5,10.1h-8.6c-1.4,0-2.8.9-3.3,1.9h0Z"/>
    <path class="st0" d="M206.9,30.4h-6.3v15.3c0,1.7,0,4,.2,6.9h-.1l-15.8-20c-1.4-1.7-3.2-2.6-5.8-2.6-3.8,0-6.4,2-6.4,4.9v25.6h8v-22.7c-.1,0,0,0,0,0l16.2,20.4c1.4,1.8,3.4,2.7,5.9,2.7s5.9-2,5.9-4.6v-24h0c0-1-.7-2-1.7-2h0Z"/>
  </g>
  <path class="st0" d="M56.1,20.4c0-.1,0-.2.2-.3l1-.5c0,0,.2,0,.3,0l1,.5c0,0,.2.2.2.3v1.1c0,.1,0,.2-.2.3l-1,.5c0,0-.2,0-.3,0l-1-.5c0,0-.2-.2-.2-.3v-1.1ZM52.2,19.9c0,.1,0,.2.2.3l1,.5c0,0,.2,0,.3,0l1-.5c0,0,.2-.2.2-.3v-1.1c0-.1,0-.2-.2-.3l-1-.5c0,0-.2,0-.3,0l-1,.5c0,0-.2.2-.2.3v1.1ZM48,18.9c0,.1,0,.2.2.3l1,.5c0,0,.2,0,.3,0l1-.5c0,0,.2-.2.2-.3v-1.1c0-.1,0-.2-.2-.3l-1-.5c0,0-.2,0-.3,0l-1,.5c0,0-.2.2-.2.3v1.1ZM43.7,18.5c0,.1,0,.2.2.3l1,.5c0,0,.2,0,.3,0l1-.5c0,0,.2-.2.2-.3v-1.1c0-.1,0-.2-.2-.3l-1-.5c0,0-.2,0-.3,0l-1,.5c0,0-.2.2-.2.3v1.1ZM43.7,14.6c0,.1,0,.2.2.3l1,.6c0,0,.2,0,.3,0l1-.6c0,0,.2-.2.2-.3v-1.1c0-.1,0-.2-.2-.3l-1-.6c0,0-.2,0-.3,0l-1,.6c0,0-.2.2-.2.3v1.1ZM38.8,15c0,.1,0,.2.2.3l1,.6c0,0,.2,0,.3,0l1-.6c0,0,.2-.2.2-.3v-1.1c0-.1,0-.2-.2-.3l-1-.6c0,0-.2,0-.3,0l-1,.6c0,0-.2.2-.2.3v1.1ZM39.5,18.9c0,.1,0,.2.2.3l1,.5c0,0,.2,0,.3,0l1-.5c0,0,.2-.2.2-.3v-1.1c0-.1,0-.2-.2-.3l-1-.5c0,0-.2,0-.3,0l-1,.5c0,0-.2.2-.2.3v1.1ZM34.1,16.1c0,.1,0,.2.2.3l1,.5c0,0,.2,0,.3,0l1-.5c0,0,.2-.2.2-.3v-1.1c0-.1,0-.2-.2-.3l-1-.6c0,0-.2,0-.3,0l-1,.6c0,0-.2.2-.2.3v1.1ZM32.8,12.2c0,.1,0,.2.2.3l1,.6c0,0,.2,0,.3,0l1-.6c0,0,.2-.2.2-.3v-1.1c0-.1,0-.2-.2-.3l-1-.6c0,0-.3,0-.3,0l-1,.6c0,0-.2.2-.2.3v1.1ZM27.7,14.4c0,.1,0,.2.2.3l1,.6c.1,0,.2,0,.4,0l1-.6c.1,0,.2-.2.2-.3v-1.1c0-.1,0-.2-.2-.3l-1-.6c-.1,0-.2,0-.4,0l-1,.6c-.1,0-.2.2-.2.3v1.1ZM23,17.3c0,.1,0,.2.2.3l1,.5c.1,0,.2,0,.4,0l1-.5c.1,0,.2-.2.2-.3v-1.1c0-.1,0-.2-.2-.3l-1-.6c-.1,0-.2,0-.4,0l-1,.6c-.1,0-.2.2-.2.3v1.1ZM20.5,14.2c0,.1,0,.2.2.3l1,.6c.1,0,.2,0,.4,0l1-.6c.1,0,.2-.2.2-.3v-1.1c0-.1,0-.2-.2-.3l-1-.6c-.1,0-.2,0-.4,0l-1,.6c-.1,0-.2.2-.2.3v1.1ZM15.8,18.3c0,.1,0,.2.2.3l1,.5c.1,0,.2,0,.4,0l1-.5c.1,0,.2-.2.2-.3v-1.1c0-.1,0-.2-.2-.3l-1-.5c-.1,0-.2,0-.4,0l-1,.5c-.1,0-.2.2-.2.3v1.1ZM18.8,20.9c0,.1,0,.2.2.3l1,.5c.1,0,.2,0,.4,0l1-.5c.1,0,.2-.2.2-.3v-1.1c0-.1,0-.2-.2-.3l-1-.5c-.1,0-.2,0-.4,0l-1,.5c-.1,0-.2.2-.2.3v1.1ZM15.1,25.1c0,.1,0,.2.2.3l1,.5c.1,0,.2,0,.4,0l1-.5c.1,0,.2-.2.2-.3v-1.1c0-.1,0-.2-.2-.3l-1-.5c-.1,0-.2,0-.4,0l-1,.5c-.1,0-.2.2-.2.3,0,0,0,1.1,0,1.1ZM11.8,23c0,.1,0,.2.2.3l1,.5c.1,0,.2,0,.4,0l1-.5c.1,0,.2-.2.2-.3v-1.1c0-.1,0-.2-.2-.3l-1-.5c-.1,0-.2,0-.4,0l-1,.5c-.1,0-.2.2-.2.3v1.1ZM4.7,26.4c0,.1,0,.2.2.3l1,.5c0,0,.2,0,.3,0l1-.5c0,0,.2-.2.2-.3v-1.1c0-.1,0-.2-.2-.3l-1-.5c0,0-.2,0-.3,0l-1,.5c0,0-.2.2-.2.3v1.1ZM8.7,28.3c0,.1,0,.2.2.3l1,.5c.1,0,.2,0,.4,0l1-.5c.1,0,.2-.2.2-.3v-1.1c0-.1,0-.2-.2-.3l-1-.5c-.1,0-.3,0-.4,0l-1,.5c-.1,0-.2.2-.2.3v1.1ZM12.2,29.9c0,.1,0,.2.2.3l1,.5c.1,0,.2,0,.4,0l1-.5c.1,0,.2-.2.2-.3v-1.1c0-.1,0-.2-.2-.3l-1-.5c-.1,0-.2,0-.4,0l-1,.5c-.1,0-.2.2-.2.3v1.1ZM35.3,19.9c0,.1,0,.2.2.3l1,.5c0,0,.2,0,.3,0l1-.5c0,0,.2-.2.2-.3v-1.1c0-.1,0-.2-.2-.3l-1-.5c0,0-.2,0-.3,0l-1,.5c0,0-.2.2-.2.3v1.1ZM29.5,18c0,.1,0,.2.2.3l1,.5c.1,0,.2,0,.4,0l1-.5c0,0,.2-.2.2-.3v-1.1c0-.1,0-.2-.2-.3l-1-.6c-.1,0-.2,0-.4,0l-1,.6c-.1,0-.2.2-.2.3,0,0,0,1.1,0,1.1ZM31.3,21.5c0,.1,0,.2.2.3l1,.5c0,0,.2,0,.3,0l1-.5c0,0,.2-.2.2-.3v-1.1c0-.1,0-.2-.2-.3l-1-.5c0,0-.2,0-.3,0l-1,.5c-.1,0-.2.2-.2.3v1.1ZM25.4,20.6c0,.1,0,.2.2.3l1,.5c.1,0,.2,0,.4,0l1-.5c.1,0,.2-.2.2-.3v-1.1c0-.1,0-.2-.2-.3l-1-.5c-.1,0-.2,0-.4,0l-1,.5c-.1,0-.2.2-.2.3v1.1ZM27.7,23.8c0,.1,0,.2.2.3l1,.5c.1,0,.2,0,.4,0l1-.5c.1,0,.2-.2.2-.3v-1.1c0-.1,0-.2-.2-.3l-1-.5c-.1,0-.2,0-.4,0l-1,.5c-.1,0-.2.2-.2.3v1.1ZM21.6,23.8c0,.1,0,.2.2.3l1,.5c.1,0,.2,0,.4,0l1-.5c.1,0,.2-.2.2-.3v-1.1c0-.1,0-.2-.2-.3l-1-.5c-.1,0-.2,0-.4,0l-1,.5c-.1,0-.2.2-.2.3v1.1ZM24.4,26.6c0,.1,0,.2.2.3l1,.5c.1,0,.2,0,.4,0l1-.5c.1,0,.2-.2.2-.3v-1.1c0-.1,0-.2-.2-.3l-1-.5c-.1,0-.2,0-.4,0l-1,.5c-.1,0-.2.2-.2.3v1.1ZM18.4,27.6c0,.1,0,.2.2.3l1,.5c.1,0,.2,0,.4,0l1-.5c.1,0,.2-.2.2-.3v-1.1c0-.1,0-.2-.2-.3l-1-.5c-.1,0-.2,0-.4,0l-1,.5c-.1,0-.2.2-.2.3v1.1ZM15.9,31.8c0,.1,0,.2.2.3l1,.6c.1,0,.2,0,.4,0l1-.5c.1,0,.2-.2.2-.3v-1.1c0-.1,0-.2-.2-.3l-1-.5c-.1,0-.2,0-.4,0l-1,.5c-.1,0-.2.2-.2.3,0,0,0,1.1,0,1.1ZM19.4,33.5c0,.1,0,.2.2.3l1,.5c.1,0,.2,0,.4,0l1-.5c.1,0,.2-.2.2-.3v-1.1c0-.1,0-.2-.2-.3l-1-.5c-.1,0-.2,0-.4,0l-1,.5c-.1,0-.2.2-.2.3v1.1ZM17.7,37.5c0,.1,0,.2.2.3l1,.5c.1,0,.2,0,.4,0l1-.5c.1,0,.2-.2.2-.3v-1.1c0-.1,0-.2-.2-.3l-1-.5c-.1,0-.2,0-.4,0l-1,.5c-.1,0-.2.2-.2.3v1.1ZM14,36.3c0,.1,0,.2.2.3l1,.5c.1,0,.2,0,.4,0l1-.5c.1,0,.2-.2.2-.3v-1.1c0-.1,0-.2-.2-.3l-1-.5c-.1,0-.2,0-.4,0l-1,.5c-.1,0-.2.2-.2.3v1.1ZM12.9,41.1c0,.1,0,.2.2.3l1,.5c.1,0,.2,0,.4,0l1-.5c.1,0,.2-.2.2-.3v-1.1c0-.1,0-.2-.2-.3l-1-.5c-.1,0-.2,0-.4,0l-1,.5c-.1,0-.2.2-.2.3v1.1ZM8.8,40.5c0,.1,0,.2.2.3l1,.5c.1,0,.2,0,.4,0l1-.5c0,0,.2-.2.2-.3v-1.1c0-.1,0-.2-.2-.3l-1-.5c-.1,0-.2,0-.4,0l-1,.5c-.1,0-.2.2-.2.3v1.1ZM4.9,40.1c0,.1,0,.2.2.3l1,.5c0,0,.2,0,.3,0l1-.5c0,0,.2-.2.2-.3v-1.1c0-.1,0-.2-.2-.3l-1-.5c0,0-.2,0-.3,0l-1,.5c0,0-.2.2-.2.3v1.1ZM.5,39.5c0,.1,0,.2.2.3l1,.5c.1,0,.2,0,.4,0l1-.5c0,0,.2-.2.2-.3v-1.1c0-.1,0-.2-.2-.3l-1-.5c-.1,0-.2,0-.4,0l-1,.5c-.1,0-.2.2-.2.3v1.1ZM10.1,35c0,.1,0,.2.2.3l1,.6c.1,0,.2,0,.4,0l1-.6c.1,0,.2-.2.2-.3v-1.1c0-.1,0-.2-.2-.3l-1-.5c-.1,0-.2,0-.4,0l-1,.5c-.1,0-.2.2-.2.3v1.1ZM6.3,34c0,.1,0,.2.2.3l1,.5c0,0,.2,0,.3,0l1-.5c.1,0,.2-.2.2-.3v-1.1c0-.1,0-.2-.2-.3l-1-.5c0,0-.3,0-.3,0l-1,.5c0,0-.2.2-.2.3v1.1ZM2.1,32.8c0,.1,0,.2.2.3l1,.5c0,0,.2,0,.3,0l1-.5c0,0,.2-.2.2-.3v-1.1c0-.1,0-.2-.2-.3l-1-.6c0,0-.2,0-.3,0l-1,.6c0,0-.2.2-.2.3v1.1ZM16.7,41.7c0,.1,0,.2.2.3l1,.5c.1,0,.2,0,.4,0l1-.5c.1,0,.2-.2.2-.3v-1.1c0-.1,0-.2-.2-.3l-1-.5c-.1,0-.2,0-.4,0l-1,.5c-.1,0-.2.2-.2.3v1.1ZM16.4,46c0,.1,0,.2.2.3l1,.5c.1,0,.2,0,.4,0l1-.5c.1,0,.2-.2.2-.3v-1.1c0-.1,0-.2-.2-.3l-1-.6c-.1,0-.2,0-.4,0l-1,.6c-.1,0-.2.2-.2.3v1.1ZM12.5,46.1c0,.1,0,.2.2.3l1,.5c.1,0,.2,0,.4,0l1-.5c.1,0,.2-.2.2-.3v-1.1c0-.1,0-.2-.2-.3l-1-.5c-.1,0-.2,0-.4,0l-1,.5c-.1,0-.2.2-.2.3v1.1ZM8.4,46c0,.1,0,.2.2.3l1,.5c.1,0,.2,0,.4,0l1-.5c.1,0,.2-.2.2-.3v-1.1c0-.1,0-.2-.2-.3l-1-.5c-.1,0-.2,0-.4,0l-1,.5c-.1,0-.2.2-.2.3v1.1ZM4.5,46.3c0,.1,0,.2.2.3l1,.5c0,0,.2,0,.3,0l1-.5c0,0,.2-.2.2-.3v-1.1c0-.1,0-.2-.2-.3l-1-.5c0,0-.2,0-.3,0l-1,.5c0,0-.2.2-.2.3v1.1ZM0,46.4c0,.1,0,.2.2.3l1,.5c.1,0,.2,0,.4,0l1-.5c0,0,.2-.2.2-.3v-1.1c0-.1,0-.2-.2-.3l-1-.5c-.1,0-.2,0-.4,0l-1,.5C0,45,0,45.2,0,45.3,0,45.3,0,46.4,0,46.4ZM16.7,50.3c0,.1,0,.2.2.3l1,.5c.1,0,.2,0,.4,0l1-.5c.1,0,.2-.2.2-.3v-1.1c0-.1,0-.2-.2-.3l-1-.5c-.1,0-.2,0-.4,0l-1,.5c-.1,0-.2.2-.2.3v1.1ZM12.9,51c0,.1,0,.2.2.3l1,.5c.1,0,.2,0,.4,0l1-.5c.1,0,.2-.2.2-.3v-1.1c0-.1,0-.2-.2-.3l-1-.5c-.1,0-.2,0-.4,0l-1,.5c-.1,0-.2.2-.2.3v1.1ZM8.8,51.6c0,.1,0,.2.2.3l1,.5c.1,0,.2,0,.4,0l1-.5c0,0,.2-.2.2-.3v-1.1c0-.1,0-.2-.2-.3l-1-.5c-.1,0-.2,0-.4,0l-1,.5c-.1,0-.2.2-.2.3v1.1ZM5,52.5c0,.1,0,.2.2.3l1,.5c0,0,.2,0,.3,0l1-.5c0,0,.2-.2.2-.3v-1.1c0-.1,0-.2-.2-.3l-1-.5c0,0-.2,0-.3,0l-1,.5c0,0-.2.2-.2.3v1.1ZM.6,53.3c0,.1,0,.2.2.3l1,.5c.1,0,.2,0,.3,0l1-.5c0,0,.2-.2.2-.3v-1.1c0-.1,0-.2-.2-.3l-1-.5c-.1,0-.2,0-.4,0l-1,.5c-.1,0-.2.2-.2.3,0,0,0,1.1,0,1.1ZM17.7,54.5c0,.1,0,.2.2.3l1,.5c.1,0,.2,0,.4,0l1-.5c.1,0,.2-.2.2-.3v-1.1c0-.1,0-.2-.2-.3l-1-.5c-.1,0-.2,0-.4,0l-1,.5c-.1,0-.2.2-.2.3v1.1ZM19.4,58.5c0,.1,0,.2.2.3l1,.5c.1,0,.2,0,.4,0l1-.5c.1,0,.2-.2.2-.3v-1.1c0-.1,0-.2-.2-.3l-1-.5c-.1,0-.2,0-.4,0l-1,.5c-.1,0-.2.2-.2.3v1.1ZM15.9,60.3c0,.1,0,.2.2.3l1,.5c.1,0,.2,0,.4,0l1-.5c.1,0,.2-.2.2-.3v-1.1c0-.1,0-.2-.2-.3l-1-.5c-.1,0-.2,0-.4,0l-1,.5c-.1,0-.2.2-.2.3,0,0,0,1.1,0,1.1ZM12.2,62.2c0,.1,0,.2.2.3l1,.5c.1,0,.2,0,.4,0l1-.5c.1,0,.2-.2.2-.3v-1.1c0-.1,0-.2-.2-.3l-1-.5c-.1,0-.2,0-.4,0l-1,.5c-.1,0-.2.2-.2.3v1.1ZM8.9,64.2c0,.1,0,.3.2.3l1,.6c.1,0,.2,0,.4,0l1-.6c.1,0,.2-.2.2-.3v-1.1c0-.1,0-.2-.2-.3l-1-.5c-.1,0-.2,0-.4,0l-1,.5c-.1,0-.2.2-.2.3v1.1ZM14,55.8c0,.1,0,.2.2.3l1,.5c.1,0,.2,0,.4,0l1-.5c.1,0,.2-.2.2-.3v-1.1c0-.1,0-.2-.2-.3l-1-.5c-.1,0-.2,0-.4,0l-1,.5c-.1,0-.2.2-.2.3v1.1ZM10.1,57c0,.1,0,.2.2.3l1,.5c.1,0,.2,0,.4,0l1-.5c.1,0,.2-.2.2-.3v-1.1c0-.1,0-.2-.2-.3l-1-.5c-.1,0-.2,0-.4,0l-1,.5c-.1,0-.2.2-.2.3v1.1ZM6.5,58.5c0,.1,0,.2.2.3l1,.5c0,0,.2,0,.3,0l1-.5c.1,0,.2-.2.2-.3v-1.1c0-.1,0-.2-.2-.3l-1-.5c0,0-.2,0-.3,0l-1,.5c0,0-.2.2-.2.3v1.1ZM2.2,60c0,.1,0,.2.2.3l1,.6c0,0,.2,0,.3,0l1-.6c0,0,.2-.2.2-.3v-1.1c0-.1,0-.2-.2-.3l-1-.5c0,0-.2,0-.3,0l-1,.5c0,0-.2.2-.2.3v1.1ZM21.6,62.2c0,.1,0,.2.2.3l1,.5c.1,0,.2,0,.4,0l1-.5c.1,0,.2-.2.2-.3v-1.1c0-.1,0-.2-.2-.3l-1-.5c-.1,0-.2,0-.4,0l-1,.5c-.1,0-.2.2-.2.3v1.1ZM18.4,64.6c0,.1,0,.2.2.3l1,.6c.1,0,.2,0,.4,0l1-.6c.1,0,.2-.2.2-.3v-1.1c0-.1,0-.2-.2-.3l-1-.5c-.1,0-.2,0-.4,0l-1,.5c-.1,0-.2.2-.2.3v1.1ZM15.1,66.9c0,.1,0,.2.2.3l1,.6c.1,0,.2,0,.4,0l1-.6c.1,0,.2-.2.2-.3v-1.1c0-.1,0-.2-.2-.3l-1-.6c-.1,0-.2,0-.4,0l-1,.6c-.1,0-.2.2-.2.3,0,0,0,1.1,0,1.1ZM18.7,71.2c0,.1,0,.2.2.3l1,.6c.1,0,.2,0,.4,0l1-.6c.1,0,.2-.2.2-.3v-1.1c0-.1,0-.2-.2-.3l-1-.6c-.1,0-.2,0-.4,0l-1,.6c-.1,0-.2.2-.2.3v1.1ZM16.1,74.2c0,.1,0,.2.2.3l1,.6c.1,0,.2,0,.4,0l1-.6c.1,0,.2-.2.2-.3v-1.1c0-.1,0-.2-.2-.3l-1-.6c-.1,0-.2,0-.4,0l-1,.6c-.1,0-.2.2-.2.3v1.1ZM12.1,69.5c0,.1,0,.2.2.3l1,.6c.1,0,.2,0,.4,0l1-.6c.1,0,.2-.2.2-.3v-1.1c0-.1,0-.2-.2-.3l-1-.6c-.1,0-.2,0-.4,0l-1,.6c-.1,0-.2.2-.2.3v1.1ZM9,71.8c0,.1,0,.3.2.3l.5.3c.1,0,.3,0,.4,0l.5-.3c.1,0,.2-.2.2-.3v-.6c0-.1,0-.3-.2-.3l-.5-.3c-.1,0-.3,0-.4,0l-.5.3c-.1,0-.2.2-.2.3v.6ZM11.9,75.4c0,.1,0,.3.2.3l.5.3c.1,0,.3,0,.4,0l.5-.3c.1,0,.2-.2.2-.3v-.6c0-.1,0-.3-.2-.3l-.5-.3c-.1,0-.3,0-.4,0l-.5.3c-.1,0-.2.2-.2.3v.6ZM15.1,78.7c0,.1,0,.3.2.3l.5.3c.1,0,.3,0,.4,0l.5-.3c.1,0,.2-.2.2-.3v-.6c0-.1,0-.3-.2-.3l-.5-.3c-.1,0-.3,0-.4,0l-.5.3c-.1,0-.2.2-.2.3,0,0,0,.6,0,.6ZM18.7,81.6c0,.1,0,.3.2.3l.5.3c.1,0,.3,0,.4,0l.5-.3c.1,0,.2-.2.2-.3v-.6c0-.1,0-.3-.2-.3l-.5-.3c-.1,0-.3,0-.4,0l-.5.3c-.1,0-.2.2-.2.3v.6ZM22.5,84.1c0,.1,0,.3.2.3l.5.3c.1,0,.3,0,.4,0l.5-.3c.1,0,.2-.2.2-.3v-.6c0-.1,0-.3-.2-.3l-.5-.3c-.1,0-.3,0-.4,0l-.5.3c-.1,0-.2.2-.2.3v.6ZM24.6,80.5c0,.1,0,.3.2.3l.5.3c.1,0,.3,0,.4,0l.5-.3c.1,0,.2-.2.2-.3v-.6c0-.1,0-.3-.2-.3l-.5-.3c-.1,0-.3,0-.4,0l-.5.3c-.1,0-.2.2-.2.3v.6ZM28.3,82.5c0,.1,0,.3.2.3l.5.3c.1,0,.3,0,.4,0l.5-.3c.1,0,.2-.2.2-.3v-.6c0-.1,0-.3-.2-.3l-.5-.3c-.1,0-.3,0-.4,0l-.5.3c-.1,0-.2.2-.2.3v.6ZM26.6,86.2c0,.1,0,.3.2.3l.5.3c.1,0,.3,0,.4,0l.5-.3c.1,0,.2-.2.2-.3v-.6c0-.1,0-.3-.2-.3l-.5-.3c-.1,0-.3,0-.4,0l-.5.3c-.1,0-.2.2-.2.3v.6ZM32.2,84c0,.1,0,.3.2.3l.5.3c0,0,.3,0,.4,0l.5-.3c0,0,.2-.2.2-.3v-.6c0-.1,0-.3-.2-.3l-.5-.3c-.1,0-.3,0-.4,0l-.5.3c-.1,0-.2.2-.2.3v.6ZM31,87.9c0,.1,0,.3.2.3l.5.3c.1,0,.3,0,.4,0l.5-.3c.1,0,.2-.2.2-.3v-.6c0-.1,0-.3-.2-.3l-.5-.3c-.1,0-.3,0-.4,0l-.5.3c-.1,0-.2.2-.2.3v.6ZM35.4,89.1c0,.1,0,.3.2.3l.5.3c.1,0,.3,0,.4,0l.5-.3c.1,0,.2-.2.2-.3v-.6c0-.1,0-.3-.2-.3l-.5-.3c0,0-.3,0-.4,0l-.5.3c0,0-.2.2-.2.3v.6ZM36.2,85.1c0,.1,0,.3.2.3l.5.3c.1,0,.3,0,.4,0l.5-.3c.1,0,.2-.2.2-.3v-.6c0-.1,0-.3-.2-.3l-.5-.3c-.1,0-.3,0-.4,0l-.5.3c-.1,0-.2.2-.2.3v.6ZM37.1,81c0,.1,0,.3.2.3l.5.3c0,0,.3,0,.4,0l.5-.3c.1,0,.2-.2.2-.3v-.6c0-.1,0-.3-.2-.3l-.5-.3c-.1,0-.3,0-.4,0l-.5.3c-.1,0-.2.2-.2.3v.6ZM40.8,81.6c0,.1,0,.3.2.3l.5.3c0,0,.3,0,.4,0l.5-.3c0,0,.2-.2.2-.3v-.6c0-.1,0-.3-.2-.3l-.5-.3c0,0-.3,0-.4,0l-.5.3c0,0-.2.2-.2.3v.6ZM44.5,81.8c0,.1,0,.3.2.3l.5.3c.1,0,.3,0,.4,0l.5-.3c0,0,.2-.2.2-.3v-.6c0-.1,0-.3-.2-.3l-.5-.3c-.1,0-.3,0-.4,0l-.5.3c-.1,0-.2.2-.2.3v.6ZM48.3,81.6c0,.1,0,.3.2.3l.5.3c.1,0,.3,0,.4,0l.5-.3c.1,0,.2-.2.2-.3v-.6c0-.1,0-.3-.2-.3l-.5-.3c-.1,0-.3,0-.4,0l-.5.3c-.1,0-.2.2-.2.3v.6ZM52,81c0,.1,0,.3.2.3l.5.3c.1,0,.3,0,.4,0l.5-.3c.1,0,.2-.2.2-.3v-.6c0-.1,0-.3-.2-.3l-.5-.3c-.1,0-.3,0-.4,0l-.5.3c-.1,0-.2.2-.2.3v.6ZM51.1,77c0,.1,0,.3.2.3l.5.3c.1,0,.3,0,.4,0l.5-.3c0,0,.2-.2.2-.3v-.6c0-.1,0-.3-.2-.3l-.5-.3c-.1,0-.3,0-.4,0l-.5.3c-.1,0-.2.2-.2.3v.6ZM54.3,76.1c0,.1,0,.3.2.3l.5.3c.1,0,.3,0,.4,0l.5-.3c.1,0,.2-.2.2-.3v-.6c0-.1,0-.3-.2-.3l-.5-.3c0,0-.3,0-.4,0l-.5.3c-.1,0-.2.2-.2.3v.6ZM55.6,80c0,.1,0,.3.2.3l.5.3c.1,0,.3,0,.4,0l.5-.3c0,0,.2-.2.2-.3v-.6c0-.1,0-.3-.2-.3l-.5-.3c-.1,0-.3,0-.4,0l-.5.3c-.1,0-.2.2-.2.3v.6ZM59.1,78.7c0,.1,0,.3.2.3l.5.3c0,0,.3,0,.4,0l.5-.3c.1,0,.2-.2.2-.3v-.6c0-.1,0-.3-.2-.3l-.5-.3c-.1,0-.3,0-.4,0l-.5.3c-.1,0-.2.2-.2.3v.6ZM62.4,77c0,.1,0,.3.2.3l.5.3c.1,0,.3,0,.4,0l.5-.3c.1,0,.2-.2.2-.3v-.6c0-.1,0-.3-.2-.3l-.5-.3c-.1,0-.3,0-.4,0l-.5.3c-.1,0-.2.2-.2.3v.6ZM60.3,73.4c0,.1,0,.3.2.3l.5.3c.1,0,.3,0,.4,0l.5-.3c.1,0,.2-.2.2-.3v-.6c0-.1,0-.3-.2-.3l-.5-.3c0,0-.3,0-.4,0l-.5.3c-.1,0-.2.2-.2.3v.6ZM60.7,68.2c0,.1,0,.3.2.3l.5.3c.1,0,.3,0,.4,0l.5-.3c.1,0,.2-.2.2-.3v-.6c0-.1,0-.3-.2-.3l-.5-.3c-.1,0-.3,0-.4,0l-.5.3c-.1,0-.2.2-.2.3v.6ZM63.1,71.6c0,.1,0,.3.2.3l.5.3c.1,0,.3,0,.4,0l.5-.3c0,0,.2-.2.2-.3v-.6c0-.1,0-.3-.2-.3l-.5-.3c-.1,0-.3,0-.4,0l-.5.3c-.1,0-.2.2-.2.3v.6ZM65.5,74.9c0,.1,0,.3.2.3l.5.3c0,0,.3,0,.4,0l.5-.3c0,0,.2-.2.2-.3v-.6c0-.1,0-.3-.2-.3l-.5-.3c0,0-.3,0-.4,0l-.5.3c-.1,0-.2.2-.2.3v.6ZM68,78.3c0,.1,0,.3.2.3l.5.3c.1,0,.3,0,.4,0l.5-.3c.1,0,.2-.2.2-.3v-.6c0-.1,0-.3-.2-.3l-.5-.3c-.1,0-.3,0-.4,0l-.5.3c-.1,0-.2.2-.2.3v.6ZM71.2,75.6c0,.1,0,.3.2.3l.5.3c.1,0,.3,0,.4,0l.5-.3c.1,0,.2-.2.2-.3v-.6c0-.1,0-.3-.2-.3l-.5-.3c-.1,0-.3,0-.4,0l-.5.3c-.1,0-.2.2-.2.3v.6ZM73.9,78.7c0,.1,0,.3.2.3l.5.3c.1,0,.3,0,.4,0l.5-.3c0,0,.2-.2.2-.3v-.6c0-.1,0-.3-.2-.3l-.5-.3c-.1,0-.3,0-.4,0l-.5.3c-.1,0-.2.2-.2.3v.6ZM70.4,81.6c0,.1,0,.3.2.3l.5.3c0,0,.3,0,.4,0l.5-.3c.1,0,.2-.2.2-.3v-.6c0-.1,0-.3-.2-.3l-.5-.3c-.1,0-.3,0-.4,0l-.5.3c-.1,0-.2.2-.2.3v.6ZM77.2,75.4c0,.1,0,.3.2.3l.5.3c0,0,.3,0,.4,0l.5-.3c.1,0,.2-.2.2-.3v-.6c0-.1,0-.3-.2-.3l-.5-.3c-.1,0-.3,0-.4,0l-.5.3c0,0-.2.2-.2.3v.6ZM80.1,71.8c0,.1,0,.3.2.3l.5.3c.1,0,.3,0,.4,0l.5-.3c.1,0,.2-.2.2-.3v-.6c0-.1,0-.3-.2-.3l-.5-.3c-.1,0-.3,0-.4,0l-.5.3c0,0-.2.2-.2.3v.6ZM76.8,69.4c0,.1,0,.3.2.3l.5.3c.1,0,.3,0,.4,0l.5-.3c.1,0,.2-.2.2-.3v-.6c0-.1,0-.3-.2-.3l-.5-.3c-.1,0-.3,0-.4,0l-.5.3c-.1,0-.2.2-.2.3v.6ZM73.4,67c0,.1,0,.3.2.3l.5.3c.1,0,.3,0,.4,0l.5-.3c.1,0,.2-.2.2-.3v-.6c0-.1,0-.3-.2-.3l-.5-.3c-.1,0-.3,0-.4,0l-.5.3c-.1,0-.2.2-.2.3v.6ZM70.1,64.5c0,.1,0,.3.2.3l.5.3c.1,0,.3,0,.4,0l.5-.3c.1,0,.2-.2.2-.3v-.6c0-.1,0-.3-.2-.3l-.5-.3c-.1,0-.3,0-.4,0l-.5.3c-.1,0-.2.2-.2.3v.6ZM66.8,62.1c0,.1,0,.3.2.3l.5.3c0,0,.3,0,.4,0l.5-.3c0,0,.2-.2.2-.3v-.6c0-.1,0-.3-.2-.3l-.5-.3c0,0-.3,0-.4,0l-.5.3c0,0-.2.2-.2.3v.6ZM68.4,59.7c0,.1,0,.3.2.3l.5.3c.1,0,.3,0,.4,0l.5-.3c.1,0,.2-.2.2-.3v-.6c0-.1,0-.3-.2-.3l-.5-.3c-.1,0-.3,0-.4,0l-.5.3c0,0-.2.2-.2.3v.6ZM71.9,61.7c0,.1,0,.3.2.3l.5.3c0,0,.3,0,.4,0l.5-.3c.1,0,.2-.2.2-.3v-.5c0-.1,0-.3-.2-.3l-.5-.3c-.1,0-.3,0-.4,0l-.5.3c0,0-.2.2-.2.3v.5ZM75.5,63.8c0,.1,0,.3.2.3l.5.3c.1,0,.3,0,.4,0l.5-.3c.1,0,.2-.2.2-.3v-.6c0-.1,0-.3-.2-.3l-.5-.3c-.1,0-.3,0-.4,0l-.5.3c-.1,0-.2.2-.2.3,0,0,0,.6,0,.6ZM79,65.9c0,.1,0,.3.2.3l.5.3c.1,0,.3,0,.4,0l.5-.3c.1,0,.2-.2.2-.3v-.6c0-.1,0-.3-.2-.3l-.5-.3c-.1,0-.3,0-.4,0l-.5.3c0,0-.2.2-.2.3v.6ZM82.6,67.9c0,.1,0,.3.2.3l.5.3c.1,0,.3,0,.4,0l.5-.3c0,0,.2-.2.2-.3v-.6c0-.1,0-.3-.2-.3l-.5-.3c-.1,0-.3,0-.4,0l-.5.3c-.1,0-.2.2-.2.3v.6ZM84.7,63.8c0,.1,0,.3.2.3l.5.3c.1,0,.3,0,.4,0l.5-.3c.1,0,.2-.2.2-.3v-.6c0-.1,0-.3-.2-.3l-.5-.3c0,0-.3,0-.4,0l-.5.3c0,0-.2.2-.2.3v.6ZM80.9,62.1c0,.1,0,.3.2.3l.5.3c.1,0,.3,0,.4,0l.5-.3c.1,0,.2-.2.2-.3v-.6c0-.1,0-.3-.2-.3l-.5-.3c-.1,0-.3,0-.4,0l-.5.3c0,0-.2.2-.2.3v.6ZM77.2,60.4c0,.1,0,.3.2.3l.5.3c.1,0,.3,0,.4,0l.5-.3c0,0,.2-.2.2-.3v-.5c0-.1,0-.3-.2-.3l-.5-.3c-.1,0-.3,0-.4,0l-.5.3c0,0-.2.2-.2.3v.5ZM69.7,57.1c0,.1,0,.3.2.3l.5.3c.1,0,.3,0,.4,0l.5-.3c.1,0,.2-.2.2-.3v-.6c0-.1,0-.3-.2-.3l-.5-.3c-.1,0-.3,0-.4,0l-.5.3c-.1,0-.2.2-.2.3v.6ZM70.7,54.4c0,.1,0,.3.2.3l.5.3c0,0,.3,0,.4,0l.5-.3c.1,0,.2-.2.2-.3v-.5c0-.1,0-.3-.2-.3l-.5-.3c-.1,0-.3,0-.4,0l-.5.3c-.1,0-.2.2-.2.3v.5ZM74.6,55.6c0,.1,0,.3.2.3l.5.3c0,0,.3,0,.4,0l.5-.3c.1,0,.2-.2.2-.3v-.5c0-.1,0-.3-.2-.3l-.5-.3c0,0-.3,0-.4,0l-.5.3c0,0-.2.2-.2.3v.5ZM73.4,58.7c0,.1,0,.3.2.3l.5.3c.1,0,.3,0,.4,0l.5-.3c.1,0,.2-.2.2-.3v-.5c0-.1,0-.3-.2-.3l-.5-.3c-.1,0-.3,0-.4,0l-.5.3c0,0-.2.2-.2.3v.5ZM78.5,56.9c0,.1,0,.3.2.3l.5.3c0,0,.3,0,.4,0l.5-.3c0,0,.2-.2.2-.3v-.6c0-.1,0-.3-.2-.3l-.5-.3c-.1,0-.3,0-.4,0l-.5.3c-.1,0-.2.2-.2.3v.6ZM82.4,58.2c0,.1,0,.3.2.3l.5.3c0,0,.3,0,.4,0l.5-.3c0,0,.2-.2.2-.3v-.5c0-.1,0-.3-.2-.3l-.5-.3c-.1,0-.3,0-.4,0l-.5.3c-.1,0-.2.2-.2.3v.5ZM79.5,53.3c0,.1,0,.3.2.3l.5.3c0,0,.3,0,.4,0l.5-.3c.1,0,.2-.2.2-.3v-.5c0-.1,0-.3-.2-.3l-.5-.3c-.1,0-.3,0-.4,0l-.5.3c-.1,0-.2.2-.2.3v.5ZM83.5,54.1c0,.1,0,.3.2.3l.5.3c.1,0,.3,0,.4,0l.5-.3c.1,0,.2-.2.2-.3v-.6c0-.1,0-.3-.2-.3l-.5-.3c-.1,0-.3,0-.4,0l-.5.3c-.1,0-.2.2-.2.3v.6ZM87.5,55c0,.1,0,.3.2.3l.5.3c.1,0,.3,0,.4,0l.5-.3c.1,0,.2-.2.2-.3v-.5c0-.1,0-.3-.2-.3l-.5-.3c0,0-.3,0-.4,0l-.5.3c-.1,0-.2.2-.2.3v.5ZM88.2,50.4c0,.1,0,.3.2.3l.5.3c0,0,.3,0,.4,0l.5-.3c.1,0,.2-.2.2-.3v-.6c0-.1,0-.3-.2-.3l-.5-.3c-.1,0-.3,0-.4,0l-.5.3c-.1,0-.2.2-.2.3v.6ZM84.2,50c0,.1,0,.3.2.3l.5.3c0,0,.3,0,.4,0l.5-.3c.1,0,.2-.2.2-.3v-.5c0-.1,0-.3-.2-.3l-.5-.3c-.1,0-.3,0-.4,0l-.5.3c0,0-.2.2-.2.3v.5ZM80.1,49.5c0,.1,0,.3.2.3l.5.3c.1,0,.3,0,.4,0l.5-.3c.1,0,.2-.2.2-.3v-.5c0-.1,0-.3-.2-.3l-.5-.3c-.1,0-.3,0-.4,0l-.5.3c-.1,0-.2.2-.2.3v.5ZM76,49.1c0,.1,0,.3.2.3l.5.3c0,0,.3,0,.4,0l.5-.3c.1,0,.2-.2.2-.3v-.6c0-.1,0-.3-.2-.3l-.5-.3c-.1,0-.3,0-.4,0l-.5.3c-.1,0-.2.2-.2.3v.6ZM71.9,48.7c0,.1,0,.3.2.3l.5.3c.1,0,.3,0,.4,0l.5-.3c.1,0,.2-.2.2-.3v-.5c0-.1,0-.3-.2-.3l-.5-.3c-.1,0-.3,0-.4,0l-.5.3c-.1,0-.2.2-.2.3v.5ZM76.2,45.8c0,.1,0,.3.2.3l.5.3c0,0,.3,0,.4,0l.5-.3c.1,0,.2-.2.2-.3v-.6c0-.1,0-.3-.2-.3l-.5-.3c-.1,0-.3,0-.4,0l-.5.3c0,0-.2.2-.2.3v.6ZM72.1,45.8c0,.1,0,.3.2.3l.5.3c.1,0,.3,0,.4,0l.5-.3c.1,0,.2-.2.2-.3v-.6c0-.1,0-.3-.2-.3l-.5-.3c-.1,0-.3,0-.4,0l-.5.3c-.1,0-.2.2-.2.3v.6ZM80.3,45.8c0,.1,0,.3.2.3l.5.3c.1,0,.3,0,.4,0l.5-.3c0,0,.2-.2.2-.3v-.6c0-.1,0-.3-.2-.3l-.5-.3c-.1,0-.3,0-.4,0l-.5.3c-.1,0-.2.2-.2.3v.6ZM84.4,45.8c0,.1,0,.3.2.3l.5.3c0,0,.3,0,.4,0l.5-.3c0,0,.2-.2.2-.3v-.6c0-.1,0-.3-.2-.3l-.5-.3c-.1,0-.3,0-.4,0l-.5.3c-.1,0-.2.2-.2.3v.6ZM88.5,45.8c0,.1,0,.3.2.3l.5.3c0,0,.3,0,.4,0l.5-.3c.1,0,.2-.2.2-.3v-.6c0-.1,0-.3-.2-.3l-.5-.3c0,0-.3,0-.4,0l-.5.3c-.1,0-.2.2-.2.3v.6ZM88.2,41.1c0,.1,0,.3.2.3l.5.3c0,0,.3,0,.4,0l.5-.3c.1,0,.2-.2.2-.3v-.5c0-.1,0-.3-.2-.3l-.5-.3c-.1,0-.3,0-.4,0l-.5.3c-.1,0-.2.2-.2.3v.5ZM84.2,41.6c0,.1,0,.3.2.3l.5.3c0,0,.3,0,.4,0l.5-.3c.1,0,.2-.2.2-.3v-.5c0-.1,0-.3-.2-.3l-.5-.3c-.1,0-.3,0-.4,0l-.5.3c0,0-.2.2-.2.3v.5ZM80.1,42c0,.1,0,.3.2.3l.5.3c.1,0,.3,0,.4,0l.5-.3c.1,0,.2-.2.2-.3v-.5c0-.1,0-.3-.2-.3l-.5-.3c-.1,0-.3,0-.4,0l-.5.3c-.1,0-.2.2-.2.3v.5ZM76,42.4c0,.1,0,.3.2.3l.5.3c0,0,.3,0,.4,0l.5-.3c.1,0,.2-.2.2-.3v-.6c0-.1,0-.3-.2-.3l-.5-.3c-.1,0-.3,0-.4,0l-.5.3c-.1,0-.2.2-.2.3v.6ZM75.5,39.1c0,.1,0,.3.2.3l.5.3c.1,0,.3,0,.4,0l.5-.3c0,0,.2-.2.2-.3v-.5c0-.1,0-.3-.2-.3l-.5-.3c0,0-.3,0-.4,0l-.5.3c-.1,0-.2.2-.2.3v.5ZM79.5,38.3c0,.1,0,.3.2.3l.5.3c.1,0,.3,0,.4,0l.5-.3c.1,0,.2-.2.2-.3v-.6c0-.1,0-.3-.2-.3l-.5-.3c-.1,0-.3,0-.4,0l-.5.3c-.1,0-.2.2-.2.3v.6ZM83.5,37.4c0,.1,0,.3.2.3l.5.3c.1,0,.3,0,.4,0l.5-.3c.1,0,.2-.2.2-.3v-.6c0-.1,0-.3-.2-.3l-.5-.3c-.1,0-.3,0-.4,0l-.5.3c0,0-.2.2-.2.3v.6ZM87.5,36.6c0,.1,0,.3.2.3l.5.3c.1,0,.3,0,.4,0l.5-.3c.1,0,.2-.2.2-.3v-.5c0-.1,0-.3-.2-.3l-.5-.3c-.1,0-.3,0-.4,0l-.5.3c0,0-.2.2-.2.3v.5ZM86.3,32.1c0,.1,0,.3.2.3l.5.3c.1,0,.3,0,.4,0l.5-.3c.1,0,.2-.2.2-.3v-.6c0-.1,0-.3-.2-.3l-.5-.3c-.1,0-.3,0-.4,0l-.5.3c-.1,0-.2.2-.2.3,0,0,0,.6,0,.6ZM82.4,33.4c0,.1,0,.3.2.3l.5.3c0,0,.3,0,.4,0l.5-.3c0,0,.2-.2.2-.3v-.6c0-.1,0-.3-.2-.3l-.5-.3c-.1,0-.3,0-.4,0l-.5.3c-.1,0-.2.2-.2.3v.6ZM78.5,34.6c0,.1,0,.3.2.3l.5.3c.1,0,.3,0,.4,0l.5-.3c.1,0,.2-.2.2-.3v-.5c0-.1,0-.3-.2-.3l-.5-.3c-.1,0-.3,0-.4,0l-.5.3c-.1,0-.2.2-.2.3v.5ZM74.6,35.9c0,.1,0,.3.2.3l.5.3c0,0,.3,0,.4,0l.5-.3c.1,0,.2-.2.2-.3v-.6c0-.1,0-.3-.2-.3l-.5-.3c0,0-.3,0-.4,0l-.5.3c0,0-.2.2-.2.3v.6ZM69.7,34.5c0,.1,0,.3.2.3l.5.3c0,0,.3,0,.4,0l.5-.3c.1,0,.2-.2.2-.3v-.5c0-.1,0-.3-.2-.3l-.5-.3c-.1,0-.3,0-.4,0l-.5.3c-.1,0-.2.2-.2.3v.5ZM73.4,32.8c0,.1,0,.3.2.3l.5.3c.1,0,.3,0,.4,0l.5-.3c.1,0,.2-.2.2-.3v-.6c0-.1,0-.3-.2-.3l-.5-.3c0,0-.3,0-.4,0l-.5.3c-.1,0-.2.2-.2.3v.6ZM77.2,31.1c0,.1,0,.3.2.3l.5.3c.1,0,.3,0,.4,0l.5-.3c0,0,.2-.2.2-.3v-.5c0-.1,0-.3-.2-.3l-.5-.3c-.1,0-.3,0-.4,0l-.5.3c0,0-.2.2-.2.3v.5ZM80.9,29.4c0,.1,0,.3.2.3l.5.3c.1,0,.3,0,.4,0l.5-.3c.1,0,.2-.2.2-.3v-.5c0-.1,0-.3-.2-.3l-.5-.3c-.1,0-.3,0-.4,0l-.5.3c-.1,0-.2.2-.2.3v.5ZM84.7,27.8c0,.1,0,.3.2.3l.5.3c.1,0,.3,0,.4,0l.5-.3c.1,0,.2-.2.2-.3v-.5c0-.1,0-.3-.2-.3l-.5-.3c0,0-.3,0-.4,0l-.5.3c0,0-.2.2-.2.3v.5ZM82.6,23.6c0,.1,0,.3.2.3l.5.3c.1,0,.3,0,.4,0l.5-.3c.1,0,.2-.2.2-.3v-.6c0-.1,0-.3-.2-.3l-.5-.3c-.1,0-.3,0-.4,0l-.5.3c-.1,0-.2.2-.2.3v.6ZM79,25.7c0,.1,0,.3.2.3l.5.3c.1,0,.3,0,.4,0l.5-.3c.1,0,.2-.2.2-.3v-.6c0-.1,0-.3-.2-.3l-.5-.3c-.1,0-.3,0-.4,0l-.5.3c0,0-.2.2-.2.3v.6ZM75.5,27.8c0,.1,0,.3.2.3l.5.3c.1,0,.3,0,.4,0l.5-.3c.1,0,.2-.2.2-.3v-.5c0-.1,0-.3-.2-.3l-.5-.3c-.1,0-.3,0-.4,0l-.5.3c-.1,0-.2.2-.2.3v.5ZM71.9,29.8c0,.1,0,.3.2.3l.5.3c.1,0,.3,0,.4,0l.5-.3c0,0,.2-.2.2-.3v-.6c0-.1,0-.3-.2-.3l-.5-.3c-.1,0-.3,0-.4,0l-.5.3c-.1,0-.2.2-.2.3v.6ZM68.4,31.9c0,.1,0,.3.2.3l.5.3c.1,0,.3,0,.4,0l.5-.3c.1,0,.2-.2.2-.3v-.5c0-.1,0-.3-.2-.3l-.5-.3c-.1,0-.3,0-.4,0l-.5.3c0,0-.2.2-.2.3v.6ZM70.1,27c0,.1,0,.3.2.3l.5.3c0,0,.3,0,.4,0l.5-.3c.1,0,.2-.2.2-.3v-.5c0-.1,0-.3-.2-.3l-.5-.3c-.1,0-.3,0-.4,0l-.5.3c-.1,0-.2.2-.2.3v.5ZM73.4,24.6c0,.1,0,.3.2.3l.5.3c.1,0,.3,0,.4,0l.5-.3c.1,0,.2-.2.2-.3v-.5c0-.1,0-.3-.2-.3l-.5-.3c-.1,0-.3,0-.4,0l-.5.3c0,0-.2.2-.2.3v.5ZM76.8,22.2c0,.1,0,.3.2.3l.5.3c.1,0,.3,0,.4,0l.5-.3c.1,0,.2-.2.2-.3v-.5c0-.1,0-.3-.2-.3l-.5-.3c-.1,0-.3,0-.4,0l-.5.3c0,0-.2.2-.2.3v.5ZM80.1,19.7c0,.1,0,.3.2.3l.5.3c.1,0,.3,0,.4,0l.5-.3c.1,0,.2-.2.2-.3v-.5c0-.1,0-.3-.2-.3l-.5-.3c-.1,0-.3,0-.4,0l-.5.3c-.1,0-.2.2-.2.3v.5ZM77.2,16.1c0,.1,0,.3.2.3l.5.3c.1,0,.3,0,.4,0l.5-.3c.1,0,.2-.2.2-.3v-.6c0-.1,0-.3-.2-.3l-.5-.3c-.1,0-.3,0-.4,0l-.5.3c0,0-.2.2-.2.3,0,0,0,.6,0,.5ZM74.1,18.9c0,.1,0,.3.2.3l.5.3c.1,0,.3,0,.4,0l.5-.3c0,0,.2-.2.2-.3v-.6c0-.1,0-.3-.2-.3l-.5-.3c-.1,0-.3,0-.4,0l-.5.3c-.1,0-.2.2-.2.3v.6ZM71.1,21.7c0,.1,0,.3.2.3l.5.3c.1,0,.3,0,.4,0l.5-.3c.1,0,.2-.2.2-.3v-.6c0-.1,0-.3-.2-.3l-.5-.3c0,0-.3,0-.4,0l-.5.3c-.1,0-.2.2-.2.3v.6ZM68,24.4c0,.1,0,.3.2.3l.5.3c.1,0,.3,0,.4,0l.5-.3c.1,0,.2-.2.2-.3v-.6c0-.1,0-.3-.2-.3l-.5-.3c-.1,0-.3,0-.4,0l-.5.3c-.1,0-.2.2-.2.3v.6ZM65,27.2c0,.1,0,.3.2.3l.5.3c.1,0,.3,0,.4,0l.5-.3c.1,0,.2-.2.2-.3v-.5c0-.1,0-.3-.2-.3l-.5-.3c-.1,0-.3,0-.4,0l-.5.3c0,0-.2.2-.2.3v.5ZM63,25.2c0,.1,0,.3.2.3l.5.3c.1,0,.3,0,.4,0l.5-.3c.1,0,.2-.2.2-.3v-.5c0-.1,0-.3-.2-.3l-.5-.3c-.1,0-.3,0-.4,0l-.5.3c-.1,0-.2.2-.2.3,0,0,0,.5,0,.5ZM65.7,22.1c0,.1,0,.3.2.3l.5.3c.1,0,.3,0,.4,0l.5-.3c0,0,.2-.2.2-.3v-.6c0-.1,0-.3-.2-.3l-.5-.3c-.1,0-.3,0-.4,0l-.5.3c-.1,0-.2.2-.2.3v.6ZM68.4,19c0,.1,0,.3.2.3l.5.3c0,0,.3,0,.4,0l.5-.3c0,0,.2-.2.2-.3v-.6c0-.1,0-.3-.2-.3l-.5-.3c-.1,0-.3,0-.4,0l-.5.3c-.1,0-.2.2-.2.3v.6ZM63.1,20c0,.1,0,.3.2.3l.5.3c0,0,.3,0,.4,0l.5-.3c.1,0,.2-.2.2-.3v-.6c0-.1,0-.3-.2-.3l-.5-.3c-.1,0-.3,0-.4,0l-.5.3c-.1,0-.2.2-.2.3v.6ZM71.2,15.9c0,.1,0,.3.2.3l.5.3c0,0,.3,0,.4,0l.5-.3c.1,0,.2-.2.2-.3v-.6c0-.1,0-.3-.2-.3l-.5-.3c-.1,0-.3,0-.4,0l-.5.3c-.1,0-.2.2-.2.3,0,0,0,.6,0,.6ZM73.9,12.9c0,.1,0,.3.2.3l.5.3c0,0,.3,0,.4,0l.5-.3c0,0,.2-.2.2-.3v-.6c0-.1,0-.3-.2-.3l-.5-.3c-.1,0-.3,0-.4,0l-.5.3c-.1,0-.2.2-.2.3v.6ZM67.9,13.3c0,.1,0,.3.2.3l.5.3c0,0,.3,0,.4,0l.5-.3c0,0,.2-.2.2-.3v-.6c0-.1,0-.3-.2-.3l-.5-.3c-.1,0-.3,0-.4,0l-.5.3c-.1,0-.2.2-.2.3v.6ZM70.4,10c0,.1,0,.3.2.3l.5.3c.1,0,.3,0,.4,0l.5-.3c.1,0,.2-.2.2-.3v-.6c0-.1,0-.3-.2-.3l-.5-.3c-.1,0-.3,0-.4,0l-.5.3c-.1,0-.2.2-.2.3v.6ZM66.5,7.4c0,.1,0,.3.2.3l.5.3c0,0,.3,0,.4,0l.5-.3c0,0,.2-.2.2-.3v-.6c0-.1,0-.3-.2-.3l-.5-.3c-.1,0-.3,0-.4,0l-.5.3c-.1,0-.2.2-.2.3v.6ZM64.4,11c0,.1,0,.3.2.3l.5.3c0,0,.3,0,.4,0l.5-.3c.1,0,.2-.2.2-.3v-.6c0-.1,0-.3-.2-.3l-.5-.3c-.1,0-.3,0-.4,0l-.5.3c-.1,0-.2.2-.2.3v.6ZM60.7,9.1c0,.1,0,.3.2.3l.5.3c.1,0,.3,0,.4,0l.5-.3c.1,0,.2-.2.2-.3v-.6c0-.1,0-.3-.2-.3l-.5-.3c-.1,0-.3,0-.4,0l-.5.3c-.1,0-.2.2-.2.3v.6ZM62.4,5.3c0,.1,0,.3.2.3l.5.3c.1,0,.3,0,.4,0l.5-.3c0,0,.2-.2.2-.3v-.6c0-.1,0-.3-.2-.3l-.5-.3c-.1,0-.3,0-.4,0l-.5.3c0,0-.2.2-.2.3,0,0,0,.6,0,.6ZM58.1,3.7c0,.1,0,.3.2.3l.5.3c0,0,.3,0,.4,0l.5-.3c0,0,.2-.2.2-.3v-.5c0-.1,0-.3-.2-.3l-.5-.3c-.1,0-.3,0-.4,0l-.5.3c-.1,0-.2.2-.2.3v.5ZM56.8,7.6c0,.1,0,.3.2.3l.5.3c.1,0,.3,0,.4,0l.5-.3c.1,0,.2-.2.2-.3v-.6c0-.1,0-.3-.2-.3l-.5-.3c-.1,0-.3,0-.4,0l-.5.3c-.1,0-.2.2-.2.3v.6ZM52.8,6.5c0,.1,0,.3.2.3l.5.3c0,0,.3,0,.4,0l.5-.3c0,0,.2-.2.2-.3v-.6c0-.1,0-.3-.2-.3l-.5-.3c-.1,0-.3,0-.4,0l-.5.3c-.1,0-.2.2-.2.3v.6ZM48.7,5.8c0,.1,0,.3.2.3l.5.3c.1,0,.3,0,.4,0l.5-.3c.1,0,.2-.2.2-.3v-.6c0-.1,0-.3-.2-.3l-.5-.3c0,0-.3,0-.4,0l-.5.3c-.1,0-.2.2-.2.3v.6ZM49.1,1.7c0,.1,0,.3.2.3l.5.3c.1,0,.3,0,.4,0l.5-.3c0,0,.2-.2.2-.3v-.6c0-.1,0-.3-.2-.3l-.5-.3c-.1,0-.3,0-.4,0l-.5.3c-.1,0-.2.2-.2.3,0,0,0,.6,0,.6ZM44.5,1.5c0,.1,0,.3.2.3l.5.3c.1,0,.3,0,.4,0l.5-.3c.1,0,.2-.2.2-.3v-.6c0-.1,0-.3-.2-.3l-.5-.3c-.1,0-.3,0-.4,0l-.5.3c-.1,0-.2.2-.2.3v.6ZM44.5,5.6c0,.1,0,.3.2.3l.5.3c.1,0,.3,0,.4,0l.5-.3c.1,0,.2-.2.2-.3v-.6c0-.1,0-.3-.2-.3l-.5-.3c-.1,0-.3,0-.4,0l-.5.3c-.1,0-.2.2-.2.3v.6ZM44.5,9.8c0,.1,0,.3.2.3l.5.3c.1,0,.3,0,.4,0l.5-.3c.1,0,.2-.2.2-.3v-.6c0-.1,0-.3-.2-.3l-.5-.3c-.1,0-.3,0-.4,0l-.5.3c-.1,0-.2.2-.2.3v.6ZM40.8,10c0,.1,0,.3.2.3l.5.3c0,0,.3,0,.4,0l.5-.3c0,0,.2-.2.2-.3v-.6c0-.1,0-.3-.2-.3l-.5-.3c0,0-.3,0-.4,0l-.5.3c-.1,0-.2.2-.2.3v.6ZM40.4,5.8c0,.1,0,.3.2.3l.5.3c0,0,.3,0,.4,0l.5-.3c0,0,.2-.2.2-.3v-.6c0-.1,0-.3-.2-.3l-.5-.3c-.1,0-.3,0-.4,0l-.5.3c-.1,0-.2.2-.2.3v.6ZM39.9,1.7c0,.1,0,.3.2.3l.5.3c.1,0,.3,0,.4,0l.5-.3c.1,0,.2-.2.2-.3v-.6c0-.1,0-.3-.2-.3l-.5-.3c-.1,0-.3,0-.4,0l-.5.3c-.1,0-.2.2-.2.3,0,0,0,.6,0,.6ZM35.4,2.5c0,.1,0,.3.2.3l.5.3c.1,0,.3,0,.4,0l.5-.3c.1,0,.2-.2.2-.3v-.6c0-.1,0-.3-.2-.3l-.5-.3c-.1,0-.3,0-.4,0l-.5.3c-.1,0-.2.2-.2.3v.6ZM36.2,6.5c0,.1,0,.3.2.3l.5.3c0,0,.3,0,.4,0l.5-.3c.1,0,.2-.2.2-.3v-.6c0-.1,0-.3-.2-.3l-.5-.3c0,0-.3,0-.4,0l-.5.3c0,0-.2.2-.2.3v.6ZM32.2,7.6c0,.1,0,.3.2.3l.5.3c0,0,.3,0,.4,0l.5-.3c.1,0,.2-.2.2-.3v-.6c0-.1,0-.3-.2-.3l-.5-.3c-.1,0-.3,0-.4,0l-.5.3c-.1,0-.2.2-.2.3v.6ZM30.9,3.7c0,.1,0,.3.2.3l.5.3c.1,0,.3,0,.4,0l.5-.3c.1,0,.2-.2.2-.3v-.5c0-.1,0-.3-.2-.3l-.5-.3c-.1,0-.3,0-.4,0l-.5.3c-.1,0-.2.2-.2.3,0,0,0,.5,0,.5ZM26.6,5.3c0,.1,0,.3.2.3l.5.3c.1,0,.3,0,.4,0l.5-.3c.1,0,.2-.2.2-.3v-.6c0-.1,0-.3-.2-.3l-.5-.3c-.1,0-.3,0-.4,0l-.5.3c-.1,0-.2.2-.2.3v.6ZM28.3,9.1c0,.1,0,.3.2.3l.5.3c.1,0,.3,0,.4,0l.5-.3c.1,0,.2-.2.2-.3v-.6c0-.1,0-.3-.2-.3l-.5-.3c-.1,0-.3,0-.4,0l-.5.3c-.1,0-.2.2-.2.3v.6ZM22.5,7.4c0,.1,0,.3.2.3l.5.3c.1,0,.3,0,.4,0l.5-.3c.1,0,.2-.2.2-.3v-.6c0-.1,0-.3-.2-.3l-.5-.3c-.1,0-.3,0-.4,0l-.5.3c-.1,0-.2.2-.2.3v.6ZM18.7,10c0,.1,0,.3.2.3l.5.3c.1,0,.3,0,.4,0l.5-.3c.1,0,.2-.2.2-.3v-.6c0-.1,0-.3-.2-.3l-.5-.3c-.1,0-.3,0-.4,0l-.5.3c-.1,0-.2.2-.2.3v.6ZM15.1,12.9c0,.1,0,.3.2.3l.5.3c.1,0,.3,0,.4,0l.5-.3c.1,0,.2-.2.2-.3v-.6c0-.1,0-.3-.2-.3l-.5-.3c-.1,0-.3,0-.4,0l-.5.3c-.1,0-.2.2-.2.3,0,0,0,.6,0,.6ZM11.9,16.2c0,.1,0,.3.2.3l.5.3c.1,0,.3,0,.4,0l.5-.3c.1,0,.2-.2.2-.3v-.6c0-.1,0-.3-.2-.3l-.5-.3c-.1,0-.3,0-.4,0l-.5.3c-.1,0-.2.2-.2.3,0,0,0,.6,0,.5ZM52,10.5c0,.1,0,.3.2.3l.5.3c.1,0,.3,0,.4,0l.5-.3c.1,0,.2-.2.2-.3v-.6c0-.1,0-.3-.2-.3l-.5-.3c0,0-.3,0-.4,0l-.5.3c0,0-.2.2-.2.3v.6ZM48.3,10c0,.1,0,.3.2.3l.5.3c.1,0,.3,0,.4,0l.5-.3c0,0,.2-.2.2-.3v-.6c0-.1,0-.3-.2-.3l-.5-.3c-.1,0-.3,0-.4,0l-.5.3c0,0-.2.2-.2.3v.6ZM55.6,11.5c0,.1,0,.3.2.3l.5.3c0,0,.3,0,.4,0l.5-.3c.1,0,.2-.2.2-.3v-.6c0-.1,0-.3-.2-.3l-.5-.3c-.1,0-.3,0-.4,0l-.5.3c-.1,0-.2.2-.2.3v.6ZM59.1,12.9c0,.1,0,.3.2.3l.5.3c.1,0,.3,0,.4,0l.5-.3c.1,0,.2-.2.2-.3v-.6c0-.1,0-.3-.2-.3l-.5-.3c-.1,0-.3,0-.4,0l-.5.3c0,0-.2.2-.2.3v.6ZM57.4,16.6c0,.1,0,.3.2.3l.5.3c.1,0,.3,0,.4,0l.5-.3c0,0,.2-.2.2-.3v-.6c0-.1,0-.3-.2-.3l-.5-.3c-.1,0-.3,0-.4,0l-.5.3c-.1,0-.2.2-.2.3v.6ZM60.3,18.2c0,.1,0,.3.2.3l.5.3c0,0,.3,0,.4,0l.5-.3c.1,0,.2-.2.2-.3v-.6c0-.1,0-.3-.2-.3l-.5-.3c-.1,0-.3,0-.4,0l-.5.3c-.1,0-.2.2-.2.3v.6ZM54.3,15.5c0,.1,0,.3.2.3l.5.3c.1,0,.3,0,.4,0l.5-.3c0,0,.2-.2.2-.3v-.6c0-.1,0-.3-.2-.3l-.5-.3c-.1,0-.3,0-.4,0l-.5.3c-.1,0-.2.2-.2.3v.6ZM53.7,2.5c0,.1,0,.3.2.3l.5.3c.1,0,.3,0,.4,0l.5-.3c.1,0,.2-.2.2-.3v-.6c0-.1,0-.3-.2-.3l-.5-.3c-.1,0-.3,0-.4,0l-.5.3c-.1,0-.2.2-.2.3v.6ZM65.5,16.6c0,.1,0,.3.2.3l.5.3c.1,0,.3,0,.4,0l.5-.3c.1,0,.2-.2.2-.3v-.6c0-.1,0-.3-.2-.3l-.5-.3c-.1,0-.3,0-.4,0l-.5.3c-.1,0-.2.2-.2.3v.6ZM62.4,14.6c0,.1,0,.3.2.3l.5.3c.1,0,.3,0,.4,0l.5-.3c0,0,.2-.2.2-.3v-.6c0-.1,0-.3-.2-.3l-.5-.3c-.1,0-.3,0-.4,0l-.5.3c0,0-.2.2-.2.3,0,0,0,.6,0,.6ZM66.8,29.5c0,.1,0,.3.2.3l.5.3c0,0,.3,0,.4,0l.5-.3c0,0,.2-.2.2-.3v-.5c0-.1,0-.3-.2-.3l-.5-.3c0,0-.3,0-.4,0l-.5.3c0,0-.2.2-.2.3v.5ZM70.7,37.2c0,.1,0,.3.2.3l.5.3c.1,0,.3,0,.4,0l.5-.3c.1,0,.2-.2.2-.3v-.6c0-.1,0-.3-.2-.3l-.5-.3c-.1,0-.3,0-.4,0l-.5.3c-.1,0-.2.2-.2.3v.6ZM71.5,40c0,.1,0,.3.2.3l.5.3c0,0,.3,0,.4,0l.5-.3c.1,0,.2-.2.2-.3v-.5c0-.1,0-.3-.2-.3l-.5-.3c-.1,0-.3,0-.4,0l-.5.3c-.1,0-.2.2-.2.3v.5ZM71.9,42.9c0,.1,0,.3.2.3l.5.3c.1,0,.3,0,.4,0l.5-.3c.1,0,.2-.2.2-.3v-.6c0-.1,0-.3-.2-.3l-.5-.3c-.1,0-.3,0-.4,0l-.5.3c-.1,0-.2.2-.2.3v.6ZM86.3,59.5c0,.1,0,.3.2.3l.5.3c0,0,.3,0,.4,0l.5-.3c.1,0,.2-.2.2-.3v-.5c0-.1,0-.3-.2-.3l-.5-.3c-.1,0-.3,0-.4,0l-.5.3c0,0-.2.2-.2.3v.5ZM71.5,51.5c0,.1,0,.3.2.3l.5.3c.1,0,.3,0,.4,0l.5-.3c.1,0,.2-.2.2-.3v-.6c0-.1,0-.3-.2-.3l-.5-.3c-.1,0-.3,0-.4,0l-.5.3c-.1,0-.2.2-.2.3v.6ZM75.5,52.4c0,.1,0,.3.2.3l.5.3c.1,0,.3,0,.4,0l.5-.3c0,0,.2-.2.2-.3v-.6c0-.1,0-.3-.2-.3l-.5-.3c0,0-.3,0-.4,0l-.5.3c-.1,0-.2.2-.2.3v.6ZM65.7,69.5c0,.1,0,.3.2.3l.5.3c0,0,.3,0,.4,0l.5-.3c0,0,.2-.2.2-.3v-.6c0-.1,0-.3-.2-.3l-.5-.3c-.1,0-.3,0-.4,0l-.5.3c-.1,0-.2.2-.2.3v.6ZM63,66.4c0,.1,0,.3.2.3l.5.3c.1,0,.3,0,.4,0l.5-.3c.1,0,.2-.2.2-.3v-.6c0-.1,0-.3-.2-.3l-.5-.3c-.1,0-.3,0-.4,0l-.5.3c-.1,0-.2.2-.2.3,0,0,0,.6,0,.6ZM65,64.4c0,.1,0,.3.2.3l.5.3c.1,0,.3,0,.4,0l.5-.3c.1,0,.2-.2.2-.3v-.6c0-.1,0-.3-.2-.3l-.5-.3c-.1,0-.3,0-.4,0l-.5.3c0,0-.2.2-.2.3v.6ZM68.1,67.1c0,.1,0,.3.2.3l.5.3c.1,0,.3,0,.4,0l.5-.3c0,0,.2-.2.2-.3v-.6c0-.1,0-.3-.2-.3l-.5-.3c-.1,0-.3,0-.4,0l-.5.3c0,0-.2.2-.2.3v.6ZM71.1,69.9c0,.1,0,.3.2.3l.5.3c.1,0,.3,0,.4,0l.5-.3c0,0,.2-.2.2-.3v-.6c0-.1,0-.3-.2-.3l-.5-.3c-.1,0-.3,0-.4,0l-.5.3c-.1,0-.2.2-.2.3v.6ZM74.1,72.7c0,.1,0,.3.2.3l.5.3c.1,0,.3,0,.4,0l.5-.3c0,0,.2-.2.2-.3v-.6c0-.1,0-.3-.2-.3l-.5-.3c-.1,0-.3,0-.4,0l-.5.3c-.1,0-.2.2-.2.3v.6ZM68.4,72.5c0,.1,0,.3.2.3l.5.3c.1,0,.3,0,.4,0l.5-.3c.1,0,.2-.2.2-.3v-.6c0-.1,0-.3-.2-.3l-.5-.3c0,0-.3,0-.4,0l-.5.3c-.1,0-.2.2-.2.3v.6ZM57.4,74.9c0,.1,0,.3.2.3l.5.3c.1,0,.3,0,.4,0l.5-.3c0,0,.2-.2.2-.3v-.6c0-.1,0-.3-.2-.3l-.5-.3c-.1,0-.3,0-.4,0l-.5.3c0,0-.2.2-.2.3v.6ZM64.5,80.5c0,.1,0,.3.2.3l.5.3c.1,0,.3,0,.4,0l.5-.3c.1,0,.2-.2.2-.3v-.6c0-.1,0-.3-.2-.3l-.5-.3c-.1,0-.3,0-.4,0l-.5.3c-.1,0-.2.2-.2.3v.6ZM40.4,85.7c0,.1,0,.3.2.3l.5.3c0,0,.3,0,.4,0l.5-.3c.1,0,.2-.2.2-.3v-.6c0-.1,0-.3-.2-.3l-.5-.3c-.1,0-.3,0-.4,0l-.5.3c-.1,0-.2.2-.2.3v.6ZM44.5,85.9c0,.1,0,.3.2.3l.5.3c.1,0,.3,0,.4,0l.5-.3c0,0,.2-.2.2-.3v-.6c0-.1,0-.3-.2-.3l-.5-.3c-.1,0-.3,0-.4,0l-.5.3c-.1,0-.2.2-.2.3v.6ZM44.5,90.1c0,.1,0,.3.2.3l.5.3c0,0,.3,0,.4,0l.5-.3c0,0,.2-.2.2-.3v-.6c0-.1,0-.3-.2-.3l-.5-.3c0,0-.3,0-.4,0l-.5.3c-.1,0-.2.2-.2.3v.6ZM49.1,89.8c0,.1,0,.3.2.3l.5.3c.1,0,.3,0,.4,0l.5-.3c0,0,.2-.2.2-.3v-.6c0-.1,0-.3-.2-.3l-.5-.3c0,0-.3,0-.4,0l-.5.3c-.1,0-.2.2-.2.3v.6ZM48.7,85.7c0,.1,0,.3.2.3l.5.3c.1,0,.3,0,.4,0l.5-.3c.1,0,.2-.2.2-.3v-.6c0-.1,0-.3-.2-.3l-.5-.3c-.1,0-.3,0-.4,0l-.5.3c-.1,0-.2.2-.2.3v.6ZM52.8,85.1c0,.1,0,.3.2.3l.5.3c.1,0,.3,0,.4,0l.5-.3c0,0,.2-.2.2-.3v-.6c0-.1,0-.3-.2-.3l-.5-.3c-.1,0-.3,0-.4,0l-.5.3c-.1,0-.2.2-.2.3v.6ZM53.7,89.1c0,.1,0,.3.2.3l.5.3c.1,0,.3,0,.4,0l.5-.3c.1,0,.2-.2.2-.3v-.6c0-.1,0-.3-.2-.3l-.5-.3c-.1,0-.3,0-.4,0l-.5.3c-.1,0-.2.2-.2.3v.6ZM58.1,87.9c0,.1,0,.3.2.3l.5.3c.1,0,.3,0,.4,0l.5-.3c.1,0,.2-.2.2-.3v-.6c0-.1,0-.3-.2-.3l-.5-.3c-.1,0-.3,0-.4,0l-.5.3c0,0-.2.2-.2.3v.6ZM56.8,84c0,.1,0,.3.2.3l.5.3c.1,0,.3,0,.4,0l.5-.3c0,0,.2-.2.2-.3v-.6c0-.1,0-.3-.2-.3l-.5-.3c-.1,0-.3,0-.4,0l-.5.3c0,0-.2.2-.2.3v.6ZM60.7,82.5c0,.1,0,.3.2.3l.5.3c.1,0,.3,0,.4,0l.5-.3c.1,0,.2-.2.2-.3v-.6c0-.1,0-.3-.2-.3l-.5-.3c-.1,0-.3,0-.4,0l-.5.3c-.1,0-.2.2-.2.3v.6ZM62.4,86.2c0,.1,0,.3.2.3l.5.3c.1,0,.3,0,.4,0l.5-.3c.1,0,.2-.2.2-.3v-.6c0-.1,0-.3-.2-.3l-.5-.3c-.1,0-.3,0-.4,0l-.5.3c-.1,0-.2.2-.2.3v.6ZM66.5,84.1c0,.1,0,.3.2.3l.5.3c.1,0,.3,0,.4,0l.5-.3c.1,0,.2-.2.2-.3v-.6c0-.1,0-.3-.2-.3l-.5-.3c-.1,0-.3,0-.4,0l-.5.3c-.1,0-.2.2-.2.3v.6ZM39.9,89.8c0,.1,0,.3.2.3l.5.3c.1,0,.3,0,.4,0l.5-.3c.1,0,.2-.2.2-.3v-.6c0-.1,0-.3-.2-.3l-.5-.3c0,0-.3,0-.4,0l-.5.3c0,0-.2.2-.2.3v.6ZM24.4,65.5c0,.1,0,.2.2.3l1,.6c.1,0,.2,0,.4,0l1-.6c.1,0,.2-.2.2-.3v-1.1c0-.1,0-.2-.2-.3l-1-.5c-.1,0-.2,0-.4,0l-1,.5c-.1,0-.2.2-.2.3v1.1ZM21.6,68.3c0,.1,0,.2.2.3l1,.6c.1,0,.2,0,.4,0l1-.6c.1,0,.2-.2.2-.3v-1.1c0-.1,0-.2-.2-.3l-1-.6c-.1,0-.2,0-.4,0l-1,.6c-.1,0-.2.2-.2.3v1.1ZM27.7,68.3c0,.1,0,.2.2.3l1,.6c.1,0,.2,0,.4,0l1-.6c.1,0,.2-.2.2-.3v-1.1c0-.1,0-.2-.2-.3l-1-.6c-.1,0-.2,0-.4,0l-1,.6c-.1,0-.2.2-.2.3v1.1ZM31.3,70.6c0,.1,0,.2.2.3l1,.6c0,0,.2,0,.3,0l1-.6c0,0,.2-.2.2-.3v-1.1c0-.1,0-.2-.2-.3l-1-.6c0,0-.2,0-.3,0l-1,.6c-.1,0-.2.2-.2.3,0,0,0,1.1,0,1.1ZM35.3,72.2c0,.1,0,.2.2.3l1,.6c0,0,.2,0,.3,0l1-.6c0,0,.2-.2.2-.3v-1.1c0-.1,0-.2-.2-.3l-1-.6c0,0-.2,0-.3,0l-1,.6c0,0-.2.2-.2.3v1.1ZM39.5,73.2c0,.1,0,.2.2.3l1,.6c0,0,.2,0,.3,0l1-.6c0,0,.2-.2.2-.3v-1.1c0-.1,0-.2-.2-.3l-1-.6c0,0-.2,0-.3,0l-1,.6c0,0-.2.2-.2.3v1.1ZM43.7,73.6c0,.1,0,.2.2.3l1,.6c0,0,.2,0,.3,0l1-.6c0,0,.2-.2.2-.3v-1.1c0-.1,0-.2-.2-.3l-1-.6c0,0-.2,0-.3,0l-1,.6c0,0-.2.2-.2.3v1.1ZM43.7,77.6c0,.1,0,.2.2.3l1,.6c0,0,.2,0,.3,0l1-.6c0,0,.2-.2.2-.3v-1.1c0-.1,0-.2-.2-.3l-1-.6c0,0-.2,0-.3,0l-1,.6c0,0-.2.2-.2.3v1.1ZM38.8,77.1c0,.1,0,.2.2.3l1,.6c0,0,.2,0,.3,0l1-.6c0,0,.2-.2.2-.3v-1.1c0-.1,0-.2-.2-.3l-1-.6c0,0-.2,0-.3,0l-1,.6c0,0-.2.2-.2.3v1.1ZM34,76c0,.1,0,.2.2.3l1,.6c0,0,.2,0,.3,0l1-.6c0,0,.2-.2.2-.3v-1.1c0-.1,0-.2-.2-.3l-1-.6c0,0-.2,0-.3,0l-1,.6c0,0-.2.2-.2.3v1.1ZM29.5,74.1c0,.1,0,.2.2.3l1,.6c.1,0,.2,0,.4,0l1-.6c.1,0,.2-.2.2-.3v-1.1c0-.1,0-.2-.2-.3l-1-.6c-.1,0-.2,0-.4,0l-1,.6c-.1,0-.2.2-.2.3,0,0,0,1.1,0,1.1ZM27.6,77.7c0,.1,0,.2.2.3l1,.6c.1,0,.2,0,.4,0l1-.6c.1,0,.2-.2.2-.3v-1.1c0-.1,0-.2-.2-.3l-1-.6c-.1,0-.2,0-.4,0l-1,.6c-.1,0-.2.2-.2.3v1.1ZM25.3,71.5c0,.1,0,.2.2.3l1,.6c.1,0,.2,0,.4,0l1-.6c.1,0,.2-.2.2-.3v-1.1c0-.1,0-.2-.2-.3l-1-.6c-.1,0-.2,0-.4,0l-1,.6c-.1,0-.2.2-.2.3v1.1ZM22.9,74.8c0,.1,0,.2.2.3l1,.6c.1,0,.2,0,.4,0l1-.6c.1,0,.2-.2.2-.3v-1.1c0-.1,0-.2-.2-.3l-1-.6c-.1,0-.2,0-.4,0l-1,.6c-.1,0-.2.2-.2.3v1.1ZM48,73.2c0,.1,0,.2.2.3l1,.6c0,0,.2,0,.3,0l1-.6c0,0,.2-.2.2-.3v-1.1c0-.1,0-.2-.2-.3l-1-.6c0,0-.2,0-.3,0l-1,.6c0,0-.2.2-.2.3v1.1ZM52.2,72.2c0,.1,0,.2.2.3l1,.6c0,0,.2,0,.3,0l1-.6c0,0,.2-.2.2-.3v-1.1c0-.1,0-.2-.2-.3l-1-.6c0,0-.2,0-.3,0l-1,.6c0,0-.2.2-.2.3v1.1ZM21.6,29.9c0,.1,0,.2.2.3l1,.5c.1,0,.2,0,.4,0l1-.5c.1,0,.2-.2.2-.3v-1.1c0-.1,0-.2-.2-.3l-1-.5c-.1,0-.2,0-.4,0l-1,.5c-.1,0-.2.2-.2.3v1.1Z"/>
</svg>