<?xml version="1.0" encoding="UTF-8"?>
<svg id="Capa_2" xmlns="http://www.w3.org/2000/svg" xmlns:xlink="http://www.w3.org/1999/xlink" version="1.1" viewBox="0 0 476.1 217">
  <!-- Generator: Adobe Illustrator 30.0.0, SVG Export Plug-In . SVG Version: 2.1.1 Build 123)  -->
  <defs>
    <style>
      .st0 {
        fill: #f4f4f4;
      }

      .st1 {
        fill: #eaa11f;
      }

      .st2 {
        fill: #47abd8;
      }

      .st3 {
        isolation: isolate;
      }

      .st4 {
        opacity: .4;
      }
    </style>
  </defs>
  <g id="Capa_1-2">
    <g class="st3">
      <g class="st3">
        <path d="M206.8,66h12c3.6,0,6.3.9,8.2,2.7,1.9,1.8,2.9,4.2,2.9,7.3s-.2,2.8-.7,4c-.5,1.2-1.2,2.2-2.2,3.1-1,.9-2.1,1.5-3.5,2-1.3.5-2.9.7-4.6.7h-6.2v11.1h-5.9v-30.9ZM218.8,80.6c1.7,0,3-.4,3.9-1.1.9-.7,1.3-1.9,1.3-3.5s-.4-2.7-1.3-3.5c-.9-.8-2.2-1.2-3.9-1.2h-6v9.3h6Z"/>
      </g>
      <g class="st3">
        <path d="M237,63.1h5.7v33.8h-5.7v-33.8Z"/>
        <path d="M258.7,97.4c-1.1,0-2.1-.1-3.1-.4-1-.3-1.9-.7-2.7-1.2-.8-.6-1.4-1.3-1.9-2.2-.5-.9-.7-2-.7-3.2s.3-2.4.8-3.2c.5-.8,1.2-1.5,2.1-2,.9-.5,1.8-.9,2.9-1.2,1.1-.3,2.2-.5,3.3-.6,2.5-.3,4.2-.7,5.4-1.2,1.1-.4,1.7-1.1,1.7-2.1s-.4-1.5-1.1-1.9c-.7-.4-1.7-.6-3.1-.6s-2.4.2-3.2.7c-.8.5-1.4,1.2-1.7,2.2h-6c.2-1.1.5-2.1,1.1-3,.5-.9,1.3-1.7,2.2-2.4.9-.7,2-1.2,3.2-1.6,1.3-.4,2.7-.6,4.3-.6s3.5.2,4.8.6c1.3.4,2.3,1,3.1,1.7.8.7,1.3,1.6,1.6,2.6.3,1,.5,2.1.5,3.2v10.9c0,1.2,0,2.2.3,3,.2.9.4,1.5.5,1.9h-5.6c-.2-.3-.3-.7-.4-1.3-.1-.5-.2-1.3-.3-2.2-.7,1.2-1.7,2.1-3,2.9-1.3.7-2.9,1.1-4.9,1.1ZM260.1,92.7c1.9,0,3.4-.4,4.6-1.3s1.7-2,1.7-3.5v-2.5c-.8.5-1.7.9-2.7,1.2-1,.3-2.2.5-3.5.8-1.3.2-2.3.6-3,.9-.7.4-1.1,1-1.1,2s.3,1.4.9,1.8c.6.4,1.6.7,3,.7Z"/>
        <path d="M281,73.5h5.5v3.7c.5-1.4,1.4-2.5,2.7-3.2,1.2-.7,2.6-1.1,4-1.1,2.6,0,4.6.9,6.1,2.7,1.5,1.8,2.2,4.3,2.2,7.5v13.8h-5.7v-13.8c0-1.4-.3-2.6-1-3.5s-1.8-1.4-3.4-1.4-2.7.5-3.5,1.4c-.8.9-1.2,2.1-1.2,3.6v13.8h-5.7v-23.4Z"/>
      </g>
      <g class="st3">
        <path d="M315,87.1c.3,1.8,1,3.1,2.1,4,1.1.9,2.5,1.3,4.3,1.3s3.8-.7,4.6-2.2h6.1c-.7,2.4-2,4.2-3.9,5.4-1.9,1.2-4.2,1.9-6.9,1.9s-3.3-.3-4.8-.9c-1.5-.6-2.8-1.5-3.9-2.5-1.1-1.1-2-2.4-2.6-3.9-.6-1.5-1-3.1-1-4.9s.3-3.4.9-4.9c.6-1.5,1.5-2.8,2.5-3.9,1.1-1.1,2.3-1.9,3.8-2.6,1.5-.6,3-.9,4.6-.9s3.5.4,5.1,1.1c1.5.7,2.8,1.7,3.9,3,1.1,1.3,1.8,2.7,2.3,4.5.5,1.7.6,3.6.4,5.6h-17.6ZM320.9,77.9c-1.4,0-2.6.4-3.6,1.3-1.1.9-1.8,2.1-2.1,3.7h11.5c-.3-1.6-1-2.9-2-3.7-1-.9-2.3-1.3-3.8-1.3Z"/>
      </g>
      <g class="st3">
        <path d="M350.1,97.3c-2.8,0-5-.8-6.5-2.4-1.5-1.6-2.2-3.9-2.2-7.1v-9.5h-3v-4.8h3v-6.6h5.7v6.6h5.1v4.8h-5.1v9.5c0,1.5.3,2.6.9,3.3.6.7,1.5,1,2.8,1s.6,0,.8,0c.3,0,.6,0,.8-.1v5c-.3,0-.7.1-1.1.2s-.8,0-1.2,0Z"/>
      </g>
      <g class="st3">
        <path d="M367.1,97.4c-1.1,0-2.1-.1-3.1-.4-1-.3-1.9-.7-2.7-1.2-.8-.6-1.4-1.3-1.9-2.2-.5-.9-.7-2-.7-3.2s.3-2.4.8-3.2c.5-.8,1.2-1.5,2.1-2s1.8-.9,2.9-1.2,2.2-.5,3.3-.6c2.5-.3,4.2-.7,5.4-1.2s1.7-1.1,1.7-2.1-.4-1.5-1.1-1.9c-.7-.4-1.7-.6-3.1-.6s-2.4.2-3.2.7c-.8.5-1.4,1.2-1.7,2.2h-6c.2-1.1.5-2.1,1.1-3,.5-.9,1.3-1.7,2.2-2.4.9-.7,2-1.2,3.2-1.6,1.3-.4,2.7-.6,4.3-.6s3.5.2,4.8.6c1.3.4,2.3,1,3.1,1.7.8.7,1.3,1.6,1.6,2.6.3,1,.5,2.1.5,3.2v10.9c0,1.2,0,2.2.3,3s.4,1.5.5,1.9h-5.6c-.2-.3-.3-.7-.4-1.3-.1-.5-.2-1.3-.3-2.2-.7,1.2-1.7,2.1-3,2.9-1.3.7-2.9,1.1-4.9,1.1ZM368.5,92.7c1.9,0,3.4-.4,4.6-1.3,1.2-.9,1.7-2,1.7-3.5v-2.5c-.8.5-1.7.9-2.7,1.2-1,.3-2.2.5-3.5.8-1.3.2-2.3.6-3,.9-.7.4-1.1,1-1.1,2s.3,1.4.9,1.8c.6.4,1.6.7,3,.7Z"/>
        <path d="M389.4,73.5h5.7v4.1c.4-.9.9-1.7,1.6-2.3.7-.6,1.4-1.1,2.1-1.4.8-.3,1.6-.5,2.4-.6.8,0,1.6-.1,2.3,0v5.7c-2.6-.4-4.6,0-6,1-1.4,1.1-2.1,2.7-2.1,4.8v12.1h-6v-23.4Z"/>
        <path d="M410.2,64.5h6v5.7h-6v-5.7ZM410.4,73.5h5.7v23.4h-5.7v-23.4Z"/>
        <path d="M435.6,97.5c-1.6,0-3.2-.3-4.6-.9-1.4-.6-2.7-1.5-3.8-2.5-1.1-1.1-2-2.4-2.6-3.9-.6-1.5-1-3.1-1-4.9s.3-3.4,1-4.9c.6-1.5,1.5-2.8,2.6-3.9,1.1-1.1,2.4-1.9,3.8-2.6,1.4-.6,3-.9,4.6-.9s3.2.3,4.6.9c1.4.6,2.7,1.5,3.8,2.6,1.1,1.1,2,2.4,2.6,3.9.6,1.5,1,3.2,1,4.9s-.3,3.4-1,4.9c-.6,1.5-1.5,2.8-2.6,3.9-1.1,1.1-2.4,1.9-3.8,2.5s-3,.9-4.6.9ZM435.6,92.4c.8,0,1.6-.2,2.3-.5.7-.3,1.4-.8,1.9-1.4.5-.6,1-1.3,1.3-2.2.3-.9.5-1.9.5-3s-.2-2.1-.5-3c-.3-.9-.7-1.7-1.3-2.3-.5-.6-1.2-1.1-1.9-1.4-.7-.3-1.5-.5-2.3-.5s-1.6.2-2.3.5c-.7.3-1.4.8-1.9,1.4s-1,1.4-1.3,2.3-.5,1.9-.5,3,.2,2.1.5,3c.3.9.8,1.6,1.3,2.2s1.2,1.1,1.9,1.4c.7.3,1.5.5,2.3.5Z"/>
        <path d="M464.3,97.5c-1.7,0-3.2-.2-4.6-.6-1.3-.4-2.5-.9-3.4-1.6-.9-.7-1.7-1.5-2.2-2.5s-.8-2-.9-3.1h5.7c.2,1,.8,1.7,1.7,2.2s2.1.8,3.6.8,2.5-.2,3.3-.7c.8-.4,1.3-1,1.3-1.8s0-.8-.3-1.1c-.2-.3-.5-.5-1-.7s-1-.3-1.7-.5c-.7-.1-1.6-.3-2.6-.5-1.1-.2-2.2-.4-3.3-.6-1.1-.2-2.1-.6-3-1.1-.9-.5-1.6-1.2-2.2-2.1-.6-.9-.8-2-.8-3.5s.2-1.9.6-2.8c.4-.9,1-1.7,1.8-2.3.8-.7,1.8-1.2,3-1.6s2.6-.6,4.3-.6c2.9,0,5.2.6,6.9,1.9,1.7,1.3,2.7,3,3.1,5.1h-5.7c-.2-.5-.6-1.1-1.3-1.5-.7-.5-1.7-.7-3.2-.7s-2.3.2-3,.6c-.7.4-1,1-1,1.6s.4,1.3,1.2,1.6c.8.3,2,.6,3.8.9,1.1.2,2.2.4,3.4.6,1.2.2,2.3.6,3.2,1.1,1,.5,1.8,1.2,2.4,2.1.6.9,1,2.2,1,3.7s-.2,2.2-.7,3.1c-.5.9-1.1,1.7-2,2.4-.9.7-1.9,1.2-3.2,1.5-1.2.3-2.7.5-4.2.5Z"/>
      </g>
      <g class="st3">
        <path d="M216.6,137.7c-1.5,0-3-.3-4.4-.9-1.4-.6-2.6-1.4-3.6-2.4s-1.9-2.3-2.5-3.7c-.6-1.4-.9-3-.9-4.7s.3-3.2.9-4.7,1.4-2.7,2.5-3.7c1-1,2.2-1.9,3.6-2.4,1.4-.6,2.8-.9,4.4-.9s2.5.2,3.7.6c1.1.4,2.2.9,3.1,1.6.9.7,1.7,1.5,2.3,2.5.6,1,1.1,2.1,1.4,3.3h-5.7c-.3-1-.9-1.8-1.7-2.4-.8-.6-1.8-.8-3-.8s-1.5.2-2.2.5c-.7.3-1.3.8-1.8,1.4-.5.6-.9,1.3-1.2,2.2s-.5,1.8-.5,2.9.2,2,.5,2.9.7,1.5,1.2,2.1c.5.6,1.1,1,1.8,1.3.7.3,1.4.5,2.2.5,1.3,0,2.3-.3,3.1-.9s1.3-1.4,1.6-2.3h5.7c-.3,1.2-.7,2.3-1.4,3.3-.6,1-1.4,1.8-2.3,2.5-.9.7-1.9,1.2-3.1,1.6-1.2.4-2.4.6-3.8.6Z"/>
        <path d="M243.2,137.7c-1.6,0-3-.3-4.4-.9s-2.6-1.4-3.6-2.4-1.9-2.3-2.5-3.7c-.6-1.4-.9-3-.9-4.7s.3-3.2.9-4.7,1.4-2.7,2.5-3.7c1-1,2.2-1.9,3.6-2.4,1.4-.6,2.8-.9,4.4-.9s3,.3,4.4.9c1.4.6,2.6,1.4,3.6,2.4,1,1,1.9,2.3,2.5,3.7s.9,3,.9,4.7-.3,3.3-.9,4.7c-.6,1.4-1.4,2.6-2.5,3.7-1,1-2.2,1.8-3.6,2.4s-2.8.9-4.4.9ZM243.2,132.8c.8,0,1.5-.2,2.2-.5.7-.3,1.3-.7,1.8-1.3.5-.6.9-1.3,1.2-2.1.3-.8.5-1.8.5-2.9s-.2-2-.5-2.9c-.3-.9-.7-1.6-1.2-2.2-.5-.6-1.1-1-1.8-1.4-.7-.3-1.5-.5-2.2-.5s-1.5.2-2.2.5c-.7.3-1.3.8-1.8,1.4-.5.6-.9,1.3-1.2,2.2s-.5,1.8-.5,2.9.2,2,.5,2.9.7,1.5,1.2,2.1c.5.6,1.1,1,1.8,1.3.7.3,1.5.5,2.2.5Z"/>
        <path d="M260.8,114.9h5.3v3.5c.5-1.3,1.4-2.3,2.6-3,1.2-.7,2.5-1,3.9-1,2.5,0,4.4.9,5.8,2.6,1.4,1.7,2.1,4.1,2.1,7.2v13.1h-5.5v-13.1c0-1.4-.3-2.5-1-3.4-.6-.9-1.7-1.3-3.3-1.3s-2.6.4-3.4,1.3c-.8.9-1.1,2-1.1,3.4v13.1h-5.5v-22.3Z"/>
      </g>
      <g class="st3">
        <path d="M296.9,137.7c-1.6,0-3.1-.2-4.4-.6s-2.4-.9-3.3-1.6c-.9-.7-1.6-1.5-2.1-2.4-.5-.9-.8-1.9-.8-2.9h5.5c.2,1,.8,1.7,1.6,2.1s2,.7,3.4.7,2.4-.2,3.2-.6c.8-.4,1.2-1,1.2-1.7s0-.8-.3-1c-.2-.3-.5-.5-.9-.6-.4-.2-1-.3-1.7-.5-.7-.1-1.5-.3-2.5-.5-1-.2-2.1-.4-3.1-.6-1.1-.2-2-.6-2.9-1.1s-1.6-1.1-2.1-2c-.5-.8-.8-1.9-.8-3.3s.2-1.8.6-2.6,1-1.6,1.7-2.2c.8-.6,1.7-1.1,2.9-1.5s2.5-.6,4.1-.6c2.7,0,4.9.6,6.6,1.8s2.6,2.8,2.9,4.9h-5.5c-.2-.5-.6-1-1.2-1.5-.6-.5-1.6-.7-3-.7s-2.2.2-2.8.6c-.6.4-.9.9-.9,1.5s.4,1.3,1.1,1.5,1.9.5,3.6.8c1,.2,2.1.4,3.2.6s2.2.6,3.1,1.1c.9.5,1.7,1.2,2.3,2,.6.9.9,2.1.9,3.6s-.2,2.1-.7,2.9c-.4.9-1.1,1.6-1.9,2.3-.8.6-1.8,1.1-3,1.5-1.2.3-2.5.5-4,.5Z"/>
      </g>
      <g class="st3">
        <path d="M320.3,137.7c-2.5,0-4.4-.9-5.8-2.6-1.4-1.7-2.1-4.1-2.1-7.2v-13.1h5.5v13.1c0,1.4.3,2.5,1,3.4.7.9,1.7,1.3,3.3,1.3s2.6-.4,3.4-1.3,1.1-2,1.1-3.4v-13.1h5.5v22.3h-5.3v-3.5c-.5,1.3-1.4,2.3-2.6,3-1.2.7-2.5,1-3.9,1Z"/>
      </g>
      <g class="st3">
        <path d="M339.7,104.9h5.5v32.2h-5.5v-32.2Z"/>
      </g>
      <g class="st3">
        <path d="M362.2,137.5c-2.7,0-4.8-.8-6.2-2.3-1.4-1.5-2.1-3.8-2.1-6.8v-9.1h-2.9v-4.6h2.9v-6.3h5.5v6.3h4.9v4.6h-4.9v9.1c0,1.4.3,2.5.9,3.2.6.7,1.5,1,2.6,1s.5,0,.8,0c.3,0,.5,0,.8-.1v4.8c-.3,0-.7.1-1.1.2-.4,0-.8,0-1.1,0Z"/>
      </g>
      <g class="st3">
        <path d="M381.2,137.7c-1.6,0-3-.3-4.4-.9s-2.6-1.4-3.6-2.4c-1-1-1.9-2.3-2.5-3.7-.6-1.4-.9-3-.9-4.7s.3-3.2.9-4.7,1.4-2.7,2.5-3.7,2.2-1.9,3.6-2.4c1.4-.6,2.8-.9,4.4-.9s3,.3,4.4.9c1.4.6,2.6,1.4,3.6,2.4,1,1,1.9,2.3,2.5,3.7s.9,3,.9,4.7-.3,3.3-.9,4.7c-.6,1.4-1.4,2.6-2.5,3.7-1,1-2.2,1.8-3.6,2.4s-2.8.9-4.4.9ZM381.2,132.8c.8,0,1.5-.2,2.2-.5.7-.3,1.3-.7,1.8-1.3.5-.6.9-1.3,1.2-2.1.3-.8.5-1.8.5-2.9s-.2-2-.5-2.9c-.3-.9-.7-1.6-1.2-2.2-.5-.6-1.1-1-1.8-1.4-.7-.3-1.5-.5-2.2-.5s-1.5.2-2.2.5c-.7.3-1.3.8-1.8,1.4s-.9,1.3-1.2,2.2c-.3.9-.5,1.8-.5,2.9s.2,2,.5,2.9c.3.8.7,1.5,1.2,2.1.5.6,1.1,1,1.8,1.3.7.3,1.5.5,2.2.5Z"/>
        <path d="M398.8,114.9h5.5v3.9c.4-.9.9-1.6,1.5-2.2.6-.6,1.3-1,2-1.3.7-.3,1.5-.5,2.3-.6s1.5-.1,2.2,0v5.5c-2.5-.4-4.4,0-5.7,1-1.3,1-2,2.6-2,4.6v11.5h-5.7v-22.3Z"/>
        <path d="M424.6,137.7c-1,0-2-.1-3-.4-1-.2-1.8-.6-2.6-1.2-.8-.5-1.4-1.2-1.8-2.1-.5-.9-.7-1.9-.7-3.1s.3-2.3.8-3.1c.5-.8,1.2-1.4,2-1.9.8-.5,1.8-.9,2.8-1.1,1-.3,2.1-.5,3.1-.6,2.3-.3,4-.7,5.1-1.1,1.1-.4,1.6-1.1,1.6-2s-.3-1.4-1-1.8c-.7-.4-1.7-.6-3-.6s-2.3.2-3.1.7c-.8.4-1.3,1.1-1.6,2.1h-5.7c.2-1,.5-2,1-2.9.5-.9,1.2-1.6,2.1-2.3.9-.6,1.9-1.2,3.1-1.5,1.2-.4,2.6-.5,4.1-.5s3.3.2,4.5.6c1.2.4,2.2,1,2.9,1.6s1.3,1.5,1.6,2.5c.3,1,.5,2,.5,3.1v10.4c0,1.1,0,2.1.3,2.9.2.8.4,1.4.5,1.8h-5.4c-.1-.3-.3-.7-.4-1.2s-.2-1.2-.3-2.1c-.7,1.1-1.6,2-2.8,2.7-1.2.7-2.8,1-4.7,1ZM425.9,133.2c1.8,0,3.2-.4,4.4-1.2,1.1-.8,1.7-1.9,1.7-3.3v-2.4c-.8.5-1.6.9-2.6,1.1-1,.2-2.1.5-3.3.7s-2.2.5-2.9.9c-.7.4-1,1-1,1.9s.3,1.3.9,1.8c.6.4,1.6.6,2.9.6Z"/>
      </g>
    </g>
    <g class="st3">
      <g class="st3">
        <path class="st1" d="M212.7,161.3h-5.7l-1.1,2.6h-2.2l5.1-11.3h2.1l5.1,11.3h-2.2l-1.1-2.6ZM212,159.6l-2.1-4.9-2.1,4.9h4.2Z"/>
        <path class="st1" d="M226.9,158.9v4.9h-2v-4.7c0-1.5-.8-2.3-2.1-2.3s-2.4.9-2.4,2.6v4.4h-2v-8.6h1.9v1.1c.7-.8,1.7-1.2,3-1.2,2.1,0,3.6,1.2,3.6,3.8Z"/>
        <path class="st1" d="M235.8,163.4c-.5.4-1.2.6-1.9.6-1.9,0-3-1-3-2.9v-4.2h-1.4v-1.6h1.4v-2h2v2h2.3v1.6h-2.3v4.1c0,.8.4,1.3,1.2,1.3s.8-.1,1.1-.4l.6,1.4Z"/>
      </g>
      <g class="st3">
        <path class="st1" d="M243.7,155.1v1.9c-.2,0-.3,0-.5,0-1.5,0-2.5.9-2.5,2.7v4.2h-2v-8.6h1.9v1.3c.6-.9,1.6-1.4,3.1-1.4Z"/>
      </g>
      <g class="st3">
        <path class="st1" d="M245.7,159.6c0-2.6,1.9-4.4,4.6-4.4s4.6,1.8,4.6,4.4-1.9,4.4-4.6,4.4-4.6-1.8-4.6-4.4ZM252.9,159.6c0-1.6-1.1-2.7-2.6-2.7s-2.6,1-2.6,2.7,1.1,2.7,2.6,2.7,2.6-1,2.6-2.7Z"/>
        <path class="st1" d="M267.2,159.6c0,2.7-1.9,4.4-4.4,4.4s-2.1-.4-2.8-1.2v4.2h-2v-11.8h1.9v1.1c.7-.8,1.7-1.2,2.9-1.2,2.5,0,4.4,1.7,4.4,4.4ZM265.1,159.6c0-1.6-1.1-2.7-2.6-2.7s-2.6,1-2.6,2.7,1.1,2.7,2.6,2.7,2.6-1,2.6-2.7Z"/>
        <path class="st1" d="M269.5,159.6c0-2.6,1.9-4.4,4.6-4.4s4.6,1.8,4.6,4.4-1.9,4.4-4.6,4.4-4.6-1.8-4.6-4.4ZM276.7,159.6c0-1.6-1.1-2.7-2.6-2.7s-2.6,1-2.6,2.7,1.1,2.7,2.6,2.7,2.6-1,2.6-2.7Z"/>
        <path class="st1" d="M281.8,151.9h2v12h-2v-12Z"/>
        <path class="st1" d="M286.9,159.6c0-2.6,1.9-4.4,4.6-4.4s4.6,1.8,4.6,4.4-1.9,4.4-4.6,4.4-4.6-1.8-4.6-4.4ZM294,159.6c0-1.6-1.1-2.7-2.6-2.7s-2.6,1-2.6,2.7,1.1,2.7,2.6,2.7,2.6-1,2.6-2.7Z"/>
        <path class="st1" d="M307.7,155.2v7.3c0,3.1-1.6,4.6-4.7,4.6s-3.2-.4-4.2-1.2l.9-1.5c.8.6,2,1,3.2,1,1.9,0,2.7-.9,2.7-2.6v-.5c-.7.8-1.7,1.1-2.9,1.1-2.5,0-4.4-1.7-4.4-4.2s1.9-4.2,4.4-4.2,2.3.4,3,1.2v-1.1h1.9ZM305.7,159.3c0-1.5-1.1-2.4-2.6-2.4s-2.6,1-2.6,2.4,1.1,2.5,2.6,2.5,2.6-1,2.6-2.5Z"/>
        <path class="st1" d="M313.3,151.8h2.4l-2.8,2.2h-1.7l2.2-2.2ZM311.5,155.2h2v8.6h-2v-8.6Z"/>
        <path class="st1" d="M324.5,158.8v5.1h-1.9v-1.1c-.5.7-1.4,1.2-2.7,1.2-2,0-3.2-1.1-3.2-2.6s1-2.6,3.6-2.6h2.2c0-1.3-.7-2-2.1-2s-2,.3-2.6.9l-.8-1.5c.9-.7,2.3-1.1,3.7-1.1,2.5,0,3.9,1.2,3.9,3.7ZM322.5,161.2v-1h-2.1c-1.4,0-1.7.5-1.7,1.1s.6,1.2,1.6,1.2,1.8-.5,2.2-1.3Z"/>
        <path class="st1" d="M342.3,151.9v12h-1.9v-1.1c-.7.8-1.7,1.2-2.9,1.2-2.5,0-4.4-1.7-4.4-4.4s1.9-4.4,4.4-4.4,2.1.4,2.8,1.2v-4.4h2ZM340.3,159.6c0-1.6-1.1-2.7-2.6-2.7s-2.6,1-2.6,2.7,1.1,2.7,2.6,2.7,2.6-1,2.6-2.7Z"/>
        <path class="st1" d="M354.1,160.2h-6.8c.2,1.3,1.3,2.1,2.8,2.1s1.7-.3,2.3-.9l1.1,1.2c-.8.9-2,1.4-3.5,1.4-2.9,0-4.8-1.9-4.8-4.4s1.9-4.4,4.5-4.4,4.4,1.8,4.4,4.5,0,.4,0,.6ZM347.3,158.9h4.9c-.2-1.2-1.1-2.1-2.4-2.1s-2.3.8-2.5,2.1Z"/>
        <path class="st1" d="M373.1,152.6v11.3h-1.7l-6.2-7.7v7.7h-2.1v-11.3h1.7l6.2,7.7v-7.7h2.1Z"/>
        <path class="st1" d="M385.1,160.2h-6.8c.2,1.3,1.3,2.1,2.8,2.1s1.7-.3,2.3-.9l1.1,1.2c-.8.9-2,1.4-3.5,1.4-2.9,0-4.8-1.9-4.8-4.4s1.9-4.4,4.5-4.4,4.4,1.8,4.4,4.5,0,.4,0,.6ZM378.3,158.9h4.9c-.2-1.2-1.1-2.1-2.4-2.1s-2.3.8-2.5,2.1Z"/>
        <path class="st1" d="M396.8,155.2v7.3c0,3.1-1.6,4.6-4.7,4.6s-3.2-.4-4.2-1.2l.9-1.5c.8.6,2,1,3.2,1,1.9,0,2.7-.9,2.7-2.6v-.5c-.7.8-1.7,1.1-2.9,1.1-2.5,0-4.4-1.7-4.4-4.2s1.9-4.2,4.4-4.2,2.3.4,3,1.2v-1.1h1.9ZM394.8,159.3c0-1.5-1.1-2.4-2.6-2.4s-2.6,1-2.6,2.4,1.1,2.5,2.6,2.5,2.6-1,2.6-2.5Z"/>
        <path class="st1" d="M399.9,159.6c0-2.6,1.9-4.4,4.6-4.4s4.6,1.8,4.6,4.4-1.9,4.4-4.6,4.4-4.6-1.8-4.6-4.4ZM407,159.6c0-1.6-1.1-2.7-2.6-2.7s-2.6,1-2.6,2.7,1.1,2.7,2.6,2.7,2.6-1,2.6-2.7Z"/>
        <path class="st1" d="M411.4,159.6c0-2.6,1.9-4.4,4.7-4.4s3,.7,3.7,2l-1.6.9c-.5-.8-1.3-1.2-2.1-1.2-1.5,0-2.6,1-2.6,2.7s1.1,2.7,2.6,2.7,1.6-.4,2.1-1.2l1.6.9c-.7,1.3-2,2-3.7,2-2.7,0-4.7-1.8-4.7-4.4Z"/>
        <path class="st1" d="M422.4,152.6c0-.7.5-1.2,1.3-1.2s1.3.5,1.3,1.2-.5,1.3-1.3,1.3-1.3-.5-1.3-1.2ZM422.6,155.2h2v8.6h-2v-8.6Z"/>
        <path class="st1" d="M427.7,159.6c0-2.6,1.9-4.4,4.6-4.4s4.6,1.8,4.6,4.4-1.9,4.4-4.6,4.4-4.6-1.8-4.6-4.4ZM434.9,159.6c0-1.6-1.1-2.7-2.6-2.7s-2.6,1-2.6,2.7,1.1,2.7,2.6,2.7,2.6-1,2.6-2.7Z"/>
        <path class="st1" d="M439,163l.8-1.5c.8.5,1.9.9,3,.9s1.8-.4,1.8-1c0-1.6-5.3,0-5.3-3.5s1.5-2.7,3.8-2.7,2.5.3,3.2.7l-.8,1.5c-.8-.5-1.6-.6-2.5-.6-1.2,0-1.8.4-1.8,1,0,1.7,5.3.2,5.3,3.6s-1.5,2.7-3.9,2.7-2.9-.4-3.7-1Z"/>
      </g>
    </g>
    <g class="st4">
      <image class="st3" width="218" height="218" transform="" xlink:href="Planetarios color-1.png"/>
    </g>
    <ellipse class="st0" cx="104.2" cy="104.8" rx="63.8" ry="47.7"/>
    <path class="st2" d="M105,33.9c-39.7,0-71.9,32.2-71.9,71.9s32.2,71.9,71.9,71.9,71.9-32.2,71.9-71.9-32.2-71.9-71.9-71.9ZM52.6,129.8c-3.6,0-6.5-2.9-6.5-6.5s2.9-6.5,6.5-6.5,6.5,2.9,6.5,6.5-2.9,6.5-6.5,6.5ZM52.6,104.6c-3.6,0-6.5-2.9-6.5-6.5s2.9-6.5,6.5-6.5,6.5,2.9,6.5,6.5-2.9,6.5-6.5,6.5ZM145,117.9h-64.3c-2.5,0-4.5,2-4.5,4.5v12.5c0,3.5-2.8,6.3-6.3,6.3h0c-3.5,0-6.3-2.8-6.3-6.3v-23.2c0-4.4,3.6-8,8-8h74.7c2.9,0,5.3-2.4,5.3-5.3h0c0-2.9-2.4-5.3-5.3-5.3h-75.9c-3.7,0-6.7-3-6.7-6.7h0c0-3.7,3-6.7,6.7-6.7h77.8c8.7,0,15.8,7.1,15.8,15.8v3.5c0,10.4-8.4,18.8-18.8,18.8h0Z"/>
  </g>
</svg>