<?xml version="1.0" encoding="UTF-8"?><svg id="Capa_2" xmlns="http://www.w3.org/2000/svg" viewBox="0 0 143.72 143.72"><g id="Capa_1-2"><path d="M71.86,0C32.17,0,0,32.17,0,71.86s32.17,71.86,71.86,71.86,71.86-32.17,71.86-71.86S111.55,0,71.86,0ZM19.48,95.85c-3.6,0-6.51-2.92-6.51-6.51s2.92-6.51,6.51-6.51,6.51,2.92,6.51,6.51-2.92,6.51-6.51,6.51ZM19.48,70.66c-3.6,0-6.51-2.92-6.51-6.51s2.92-6.51,6.51-6.51,6.51,2.92,6.51,6.51-2.92,6.51-6.51,6.51ZM111.94,84H47.61c-2.51,0-4.54,2.03-4.54,4.54v12.54c0,3.5-2.84,6.34-6.34,6.34h0c-3.5,0-6.34-2.84-6.34-6.34v-23.16c.01-4.42,3.6-8.01,8.02-8.01h74.69c2.95,0,5.34-2.39,5.34-5.34h0c0-2.95-2.39-5.34-5.34-5.34H37.19c-3.69,0-6.68-2.99-6.68-6.68h0c0-3.69,2.99-6.68,6.68-6.68h77.8c8.72,0,15.78,7.06,15.78,15.78v3.53c0,10.4-8.43,18.83-18.83,18.83Z"/></g></svg>